<svg enable-background="new 0 0 145.833 64.333" height="209.369569" viewBox="0 0 145.833 64.333" width="477.624329" xmlns="http://www.w3.org/2000/svg"><g fill="#002f65"><path d="m30.047 45.93-.351-.733-.479-.978c-.379-.72-.973-1.14-1.683-1.212 1.595-2.729 2.747-6.017 2.747-9.828v-11.993c0-.075-.063-.139-.142-.139h-12.15-.006-12.154c-.08 0-.142.063-.142.139v11.993c0 3.812 1.155 7.1 2.75 9.828-.71.072-1.304.494-1.677 1.212l-.481.982-.349.729c-.316.639-.648 1.946.655 3.549 1.059 1.297 3.286 2.69 5.964 3.725l.124.049c.226.088.449.169.661.257-.221.212-.525.457-.768.648l-.214.17c-.055.044-.104.084-.15.131-.002.002-.011.002-.017.005-.016.017-.024.036-.042.051-.221.238-.349.515-.349.993v2.3c0 .941 1.348 1.278 2.608 1.278h7.171c1.26 0 2.608-.337 2.608-1.278v-2.3c0-.476-.125-.755-.35-.987-.018-.021-.026-.04-.046-.057-.002-.003-.011-.003-.013-.007-.048-.045-.099-.085-.15-.129l-.212-.17c-.242-.188-.547-.437-.771-.648.212-.088.436-.169.663-.26l.12-.046c2.676-1.034 4.909-2.428 5.962-3.725 1.311-1.603.979-2.91.663-3.549m-24.076-15.397h24.026v2.646c0 11.852-11.264 18.572-12.014 19.009-.748-.437-12.012-7.157-12.012-19.009zm22.507 13.382c.313.505.322 1.17.021 1.87-.049.121-.118.234-.191.356l-.866-1.226c-.029-.042-.083-.063-.139-.059-.051.01-.095.049-.111.098-.068.218-.261.404-.531.515-.273.106-.569.115-.812.033.534-.693 1.049-1.439 1.525-2.233.047.005.092.007.139.013.002 0 .002.005.008.005.375.031.731.263.957.628m-7.707 11.798.153.151h-5.875l.152-.151c.342-.311.635-.58.635-1.302v-1.631c0-1.597-1.406-2.224-3.033-2.949-.567-.255-1.151-.518-1.737-.841-.531-.294-1.277-.769-1.966-1.327l1.288-1.818c3.42 4.289 7.454 6.586 7.525 6.626.043.023.098.023.141 0 .071-.04 4.111-2.337 7.528-6.631l1.288 1.823c-.686.559-1.432 1.033-1.962 1.327-.585.323-1.171.586-1.739.841-1.626.726-3.031 1.353-3.031 2.949v1.631c-.001.722.293.992.633 1.302m-11.886-8.232c-.405-.344-.773-.716-1.05-1.095.164-.229.653-.92.808-1.139.126.196.305.371.563.476.28.115.589.139.864.081zm17.016-1.677c.275.058.582.034.868-.081.256-.104.436-.279.564-.476.152.219.642.91.805 1.139-.277.379-.645.751-1.052 1.095zm-19.93-24.477h24.026v8.929h-24.026zm1.523 22.588c.226-.364.583-.597.956-.628.006 0 .008-.005.014-.005.043-.006.087-.008.13-.008.479.792.995 1.535 1.525 2.229-.24.082-.537.073-.804-.033-.272-.11-.465-.297-.533-.515-.014-.049-.06-.088-.115-.098-.053-.005-.106.017-.136.059l-.869 1.226c-.07-.122-.139-.235-.19-.356-.3-.702-.291-1.367.022-1.871m5.281 9.078-.122-.049c-2.632-1.018-4.816-2.375-5.845-3.64-1.149-1.408-.974-2.546-.626-3.251l.354-.739.474-.972c.006-.01.014-.015.016-.022-.092.39-.096.916.185 1.571.533 1.246 2.336 2.578 3.716 3.341.594.33 1.185.598 1.759.852 1.6.714 2.867 1.28 2.867 2.697v1.631c0 .161-.019.29-.047.404-.041-.175-.122-.347-.25-.485-.54-.588-1.438-.938-2.481-1.338m-.472 1.769c.008-.01.016-.02.024-.026.002-.007.005-.011.009-.018.057-.058.122-.117.198-.175l.213-.172c.289-.229.639-.508.869-.743.593.255 1.096.527 1.429.886.25.272.258.72.092.877-.041.039-.084.077-.131.119l-.356.354h-.248c-1.171.01-1.952-.389-2.121-.782-.047-.117-.039-.223.022-.32m11.581.544c.008.063.01.128.01.201v2.3c0 .739-1.25 1.003-2.322 1.003h-7.171c-1.073 0-2.326-.264-2.326-1.003v-2.3c0-.073.006-.138.011-.201.277.433 1.076.844 2.317.835h7.168c1.24.009 2.034-.402 2.313-.835m-.651-.932.206.17c.077.058.142.117.199.177 0 .005.006.009.011.013.008.01.011.02.02.029.063.097.071.203.024.32-.166.394-.95.792-2.121.782h-.25l-.354-.354c-.047-.042-.09-.08-.128-.119h-.002c-.17-.157-.16-.604.092-.877.33-.358.834-.631 1.432-.886.225.235.579.516.871.745m5.933-5.07c-1.029 1.265-3.213 2.622-5.846 3.64l-.123.046c-1.039.403-1.938.753-2.479 1.341-.128.139-.213.311-.251.485-.027-.114-.043-.243-.043-.404v-1.631c0-1.417 1.263-1.983 2.862-2.697.575-.254 1.167-.521 1.765-.852 1.377-.763 3.177-2.095 3.709-3.341.287-.655.28-1.182.189-1.571.004.008.01.013.013.022l.474.972.353.739c.35.705.525 1.843-.623 3.251"/><path clip-rule="evenodd" d="m10.198 49.532c.029-.047.057-.101.083-.149-.199-.121-.395-.245-.582-.379-.03.049-.063.111-.087.162.049.032.095.066.141.096-.202.415-.397.81-.596 1.223-.049-.028-.098-.053-.145-.081-.027.047-.053.11-.08.157.319.216.648.405.98.593.099-.119.187-.236.284-.355.002-.007.004-.012.008-.02-.047-.041-.095-.09-.145-.133-.071.082-.164.184-.248.229-.11-.036-.294-.137-.384-.229.002-.102.441-.918.585-1.209.05.001.139.066.186.095m-1.531.108c.077-.145.153-.282.232-.424-.043-.033-.081-.067-.126-.104-.026.036-.051.075-.078.109-.022.014-.222-.15-.262-.185.084-.16.18-.341.272-.52.09.067.281.199.324.287.03.063-.057.193-.065.267.008.043.105.077.144.106.063-.136.138-.289.202-.425-.297-.223-.59-.454-.876-.688-.033.052-.06.101-.09.146.043.04.085.078.13.117-.226.422-.396.763-.623 1.185-.044-.034-.085-.063-.128-.097-.03.051-.055.097-.084.146.289.257.568.485.884.716.085-.118.175-.245.259-.364 0-.007.002-.009.002-.018-.044-.043-.087-.089-.136-.135-.024.043-.167.221-.199.223-.063.003-.305-.218-.352-.284.009-.094.203-.417.26-.517.078.063.193.136.244.208-.01.047-.035.104-.06.151.042.037.085.066.126.1m5.184 1.51c-.427-.233-.884-.421-1.322-.621-.075.138-.151.276-.226.415.06.03.119.064.179.099.059-.08.114-.155.175-.235.081-.01.222.061.317.101-.185.407-.392.844-.58 1.252-.063-.024-.13-.049-.195-.076-.025.052-.052.101-.073.151.228.098.459.196.685.296.024-.051.049-.102.071-.15-.065-.031-.131-.063-.197-.095.189-.408.401-.848.587-1.252.102.043.23.116.265.187-.029.085-.062.167-.092.254.016.03.147.068.191.088.074-.138.141-.279.215-.414m-1.53-.709c-.185-.093-.373-.183-.561-.272-.022.047-.046.096-.074.141.063.034.128.073.191.104-.2.415-.506 1.353-.942 1.073-.308-.196-.194-.438-.021-.788.098-.195.206-.418.307-.613.063.03.126.064.191.094.022-.052.048-.103.071-.151-.205-.102-.409-.213-.614-.315-.026.049-.054.097-.078.146.042.024.085.049.13.068 0 .082-.142.325-.185.417-.209.422-.417.754-.224 1.05.047.072.123.133.202.194.12.085.275.13.378.141.504.043.738-.624 1.013-1.199.046.019.093.04.142.06.024-.053.05-.101.074-.15m-4.236-2.447c.035.029.071.061.108.092.022-.058.049-.106.071-.162-.145-.139-.289-.274-.438-.411-.022.054-.055.104-.083.156.044.051.103.097.152.146-.138.158-.675.724-.718.762 0 .006 0 .008-.006.01-.018-.038.193-1.209.226-1.315.05.053.099.106.148.16.03-.048.059-.097.09-.15-.155-.183-.308-.374-.442-.578-.035.044-.071.091-.105.138.024.045.051.091.079.135-.041.148-.272 1.622-.287 1.782.049.067.098.13.146.193.299-.21.953-.852 1.059-.958m15.616 3.323c-.002-.007-.006-.007-.008-.007.014-.255.043-.481.073-.732.006-.006.008-.009.014-.016.096.211.178.382.283.588-.114.054-.25.116-.362.167m1.377-.177c.012.063.063.209.037.262-.028.054-.415.256-.486.258-.083-.155-.146-.335-.226-.492.09-.042.357-.183.403-.179.024.04.05.085.077.13.054-.027.105-.054.163-.081-.071-.157-.141-.315-.212-.466-.053.024-.106.049-.159.073.014.048.028.102.041.15-.037.059-.31.185-.389.223-.101-.204-.18-.394-.278-.594.134-.062.344-.192.466-.217.063.039.125.141.168.208.053-.028.104-.06.156-.092.007-.038-.167-.319-.199-.383-.321.17-.722.366-1.042.509-.047.584-.106 1.176-.158 1.749-.046.023-.092.058-.139.083.022.051.044.102.065.149.185-.07.366-.162.551-.235-.024-.051-.046-.104-.069-.152-.063.021-.12.049-.182.072.011-.189.016-.425.021-.614.142-.063.305-.138.443-.206.083.153.15.354.236.51-.055.033-.116.053-.173.085.031.051.053.1.077.148.354-.158.775-.364 1.119-.539-.041-.136-.081-.274-.126-.413-.063.02-.122.035-.185.054m1.285-1.994c.039-.031.079-.058.118-.089-.024-.049-.049-.098-.077-.146-.174.111-.342.226-.517.339.024.049.048.098.076.146.06-.034.117-.07.174-.106.052.239.122.944.134 1.112.008.062.013.126.021.193 0 0 .004.005.004.007-.039.013-.175-.168-.213-.204l-.428-.479c-.065-.07-.138-.145-.201-.217.067-.039.134-.077.195-.116-.019-.055-.038-.107-.06-.158-.218.124-.436.24-.653.361.019.054.041.104.06.155.049-.021.096-.043.138-.067.085.098.186.189.273.282.199.203.4.407.602.605.087.089.175.171.258.256.071-.041.148-.085.215-.124-.024-.402-.051-.813-.079-1.219-.011-.164-.02-.367-.04-.531m-4.881 8.328c0-.224.002-.447.002-.673.095-.004.201-.013.278.02.185.072.289.337.145.526-.085.111-.234.132-.425.127m.784.526c-.073-.126-.177-.402-.318-.449 0-.004 0-.013-.005-.017.303-.08.498-.529.199-.757-.229-.183-.715-.139-1.125-.137-.002.054-.006.107-.006.158v.002c.055.005.112.01.169.01v1.333c-.057.008-.112.008-.165.015-.004.051-.004.104-.004.155v.005h.653c0-.054.004-.104.004-.16-.063-.003-.125-.007-.188-.007.003-.175.003-.345.003-.516.073 0 .157-.01.215.015.163.068.254.529.391.663.033.027.362.005.431.005l.006-.167c-.055 0-.109-.008-.164-.011-.052-.02-.072-.091-.096-.14m-3.98-.067c-.039.141-.155.201-.313.228-.076.015-.195.005-.224-.036-.024-.026-.019-.09-.016-.141 0-.075-.01-.411.012-.449.296-.005.623.083.541.398m-.545-1.134c.191-.011.338.007.419.117.03.045.061.117.044.193-.035.211-.209.281-.468.265.003-.191.005-.383.005-.575m.474.624h-.01v-.02c.303-.117.459-.5.109-.689-.231-.132-.719-.075-1.059-.073v.16c.057.005.116.005.18.005v1.346c-.063 0-.123.007-.18.009 0 .054-.004.106-.006.158.393.002.875.053 1.127-.095.177-.102.341-.372.172-.606-.091-.124-.18-.132-.333-.195m-2.243.051c.002-.224.002-.447.006-.673.091-.004.198-.013.274.02.185.072.291.337.145.526-.086.111-.234.132-.425.127m.784.526c-.074-.126-.181-.402-.319-.449 0-.004 0-.013-.002-.017.299-.08.495-.529.198-.757-.234-.183-.716-.139-1.124-.137-.005.054-.005.107-.008.158v.002c.057.005.11.01.169.01v1.333c-.059.008-.112.008-.167.015 0 .051-.002.104-.002.155v.005h.655c0-.054 0-.104.003-.16-.066-.003-.125-.007-.193-.007.004-.175.004-.345.004-.516.073 0 .159-.01.218.015.164.068.256.529.395.663.031.027.357.005.425.005l.006-.167c-.056 0-.11-.008-.161-.011-.054-.02-.07-.091-.097-.14m-2.652-.319c.076-.231.157-.462.236-.69.006 0 .011 0 .016.005l.23.686h-.482zm.419-1.056c-.06-.017-.191-.013-.245.002-.196.505-.39 1.01-.585 1.515-.036.018-.107.02-.15.018v.16h.602v-.167c-.065 0-.13 0-.197 0 .034-.103.063-.2.095-.3.193-.002.392-.007.586-.007.046.075.095.207.109.307-.061 0-.123.004-.183.007v.16h.659v-.167c-.048 0-.101 0-.15 0-.181-.512-.361-1.022-.541-1.528m13.415-6.913c-.36.292-.754-.157-.851-.588-.048-.204-.048-.413.071-.563.035-.031.069-.068.104-.098.092-.058.169-.087.244-.087.437.018.861.987.432 1.336m.144-1.379c-.234-.215-.512-.251-.888-.028-.057.049-.114.103-.171.15-.157.17-.228.374-.244.593-.006.088.008.185.027.276.022.107.096.276.158.364.237.33.503.423.893.271.638-.247.692-1.186.225-1.626m-8.211 9.84c-.45.075-.629-.488-.537-.905.044-.2.134-.379.305-.452.044-.01.091-.019.136-.029.112-.004.193.005.262.047.394.232.378 1.251-.166 1.339m-.093-1.558c-.073.012-.147.026-.217.042-.218.066-.37.211-.477.388-.041.07-.07.162-.092.252-.024.102-.024.263-.002.372.076.398.285.611.708.675.688.106 1.129-.653.885-1.265-.121-.301-.364-.471-.805-.464" fill-rule="evenodd"/><path d="m5.891 30.375 24.225.027v2.646c0 11.852-11.388 18.819-12.137 19.251-.749-.43-12.113-7.221-12.113-19.071zm16.688 10.11c-2.215-2.62-5.379-1.313-5.409-1.299-.598.111-1.104.373-1.44.546l-.289.134c-.002 0-.392.049-.392.049l-.664.081c-.352.074-.803.313-1.378.622l-.405.217c-.669.356-.83.646-.866.73-.142.075-.236.18-.265.312-.004.021-.004.043-.004.067 0 .109.045.218.13.301.125.379.466.307.484.307.016 0 .125-.027.125-.027.171-.056.337 0 .419.216l-.002.044c-.03.072-.159.164-.222.185-.048.02-.083.041-.071.092.093.328.562.207.763.185l.057-.005.193-.028c.256-.047.736-.063.976-.011.148.03.323.111.478.209-.033.054-.039.155-.095.175l-.193.041c-.297.051-.784.063-.944.449-.153.37-.057.66-.008.772l.114.141c.082.032.24-.092.381-.175.321-.185.265-.271.27-.309.014-.108.09-.157.108-.159.006.004.071.028.071.028.193.082.68.221.934.091-.019.087-.098.373-.261.46-.13.063-.296.063-.441.06-.139-.006-.25-.006-.324.056-.114.089-.305.368-.35.443-.019.029-.019.065 0 .093l.031.054c.016.028.048.045.082.045l.915-.002.123.002c.26.008.587-.023.762-.177l.139-.106.465-.369.453-.383.21-.166c.043-.036.081-.116.108-.188.188.125.612.343.803.426-.08-.002-.328.026-.564.119-.267.104-.409.23-.64.518-.013.014 0 .077-.029.066-.012.025-.029.025-.012.052.071.123.45.323.585.354.112.026.258-.017.415-.056l.258-.053c.092-.013 1.217-.04 1.971-.038l-.417.387c-.397.265-1.026.631-1.696 1.175-.718.583-1.255 1.354-1.255 1.894 0 .072-.084.175-.067.233.04.139.152.308.445.34 1.446.153 2.282-.721 2.975-1.451l.181-.186c.482-.5.844-1.107 1.08-1.502.102-.168.205-.338.24-.367.689-.466 1.519-1.682 1.708-3.015.139-1.019-.117-1.951-.749-2.699m5.589-8.314h-.534l-.528-.327c-.024-.021-.054-.034-.087-.034h-.687c-.132 0-.245-.077-.399-.188-.235-.166-.555-.395-1.136-.395-.651 0-.975.248-1.129.446-.156-.204-.477-.446-1.123-.446-.577 0-.898.229-1.134.395-.152.111-.265.188-.397.188h-.687c-.035 0-.067.015-.092.034l-.523.327h-.534c-.076 0-.138.063-.138.133v4.616c0 .074.063.134.138.134h3.675c.083.077.275.221.575.272.142.025.384.019.508-.003.287-.052.471-.195.555-.27h3.676c.076 0 .137-.06.137-.134v-4.616c.001-.069-.06-.132-.136-.132m-11.472-.016h-.536l-.52-.324c-.022-.022-.055-.034-.093-.034h-.684c-.136 0-.244-.084-.4-.19-.234-.165-.558-.391-1.135-.391-.651 0-.972.245-1.126.442-.159-.206-.477-.442-1.125-.442-.574 0-.895.226-1.13.391-.155.106-.267.19-.399.19h-.688c-.037 0-.069.014-.097.038l-.515.32h-.533c-.077 0-.139.063-.139.136v4.613c0 .073.062.136.139.136h3.672c.084.073.275.219.572.272.145.023.387.019.506-.006.291-.048.477-.193.558-.267h3.673c.077 0 .14-.063.14-.136v-4.613c-.001-.072-.063-.135-.14-.135"/><path d="m22.64 40.434c-2.251-2.654-5.467-1.331-5.499-1.318-.605.115-1.123.381-1.462.556l-.294.139-.395.045-.681.083c-.354.072-.813.317-1.399.631l-.411.219c-.683.36-.844.656-.879.743-.144.073-.243.18-.269.309-.002.026-.006.052-.006.073 0 .113.046.22.134.305.124.384.504.421.521.424.018 0 .13-.03.13-.03.174-.056.285-.072.372.144l-.002.044c-.035.072-.177.141-.24.165-.046.015-.075.065-.059.116.098.33.576.279.783.256l.058-.006.197-.026c.258-.049.74-.136.982-.083.153.029.329.117.488.214-.032.051-.079.093-.14.116l-.195.041c-.304.051-.755.125-.917.52-.155.37-.057.669-.008.779l.141.181c.083.031.268-.059.412-.142.326-.187.342-.301.346-.339.017-.112.092-.163.115-.166 0 .006.067.031.067.031.197.083.578.241.839.104-.02.094-.067.224-.234.307-.131.068-.302.068-.446.063-.142 0-.254 0-.33.059-.117.092-.351.469-.4.544-.016.034-.016.07 0 .1l.03.051c.019.03.052.046.083.046l.928-.006.123.002c.264.01.624.021.801-.133l.139-.112.496-.395.492-.39.218-.167c.041-.034.071-.1.095-.17.193.121.394.226.591.311-.079-.005-.229.012-.469.107-.271.106-.489.315-.633.601-.008.021-.008.04-.006.06-.008.023-.011.053.002.077.071.129.457.33.593.359.114.023.264-.015.423-.054l.26-.058c.096-.01 1.09-.006 1.857 0l-.419.291c-.405.27-1.015.67-1.696 1.22-.732.592-1.255 1.444-1.255 1.994 0 .068.008.136.025.195.046.141.157.313.457.344 1.467.155 2.343-.765 3.046-1.505l.183-.187c.492-.513.856-1.119 1.099-1.522.104-.17.208-.345.242-.374.702-.473 1.545-1.704 1.734-3.057.144-1.027-.116-1.97-.758-2.729m-7.315 3.923c-.161.158-.553-.008-.719-.078l-.146-.049c-.129 0-.283.137-.308.336-.012.028-.066.077-.142.131-.019-.029-.047-.09-.061-.168-.017-.128 0-.288-.029-.303-.049-.024-.224.283-.118.587-.055.028-.106.054-.14.061-.031-.043-.096-.164-.096-.356 0-.098.019-.211.067-.336.126-.292.496-.355.771-.4l.229-.051c.125-.043.195-.124.238-.191.12.085.209.163.246.212.068.099.169.407.224.602-.006 0-.011-.002-.016.003m2.778 1.213-.291.066c-.12.031-.259.067-.327.053-.011-.002-.021-.007-.035-.011.041-.066.12-.189.24-.271.209-.143.49-.221.425-.249-.098-.049-.346-.021-.512.043-.22.083-.332.242-.403.354-.071-.044-.13-.082-.161-.112.123-.234.297-.4.517-.485.316-.121.42-.092.42-.092.118.023.949.16 1.129.16.006 0 .008-.005.014-.005.038.021.071.049.106.066.378.184.812.245 1.019.267-.02.06-.047.138-.091.215-.379-.001-1.91-.01-2.05.001m5.1-2.433c-.175 1.253-.978 2.473-1.647 2.927-.065.045-.142.164-.303.429-.238.398-.596.998-1.072 1.491l-.183.189c-.71.745-1.513 1.59-2.886 1.446-.155-.016-.248-.088-.285-.209-.125-.395.326-1.311 1.166-1.987.671-.542 1.279-.942 1.682-1.204l.5-.357c.04-.039.073-.077.104-.121.014-.007.016-.02.022-.034.128-.194.157-.418.157-.427.004-.029-.002-.054-.021-.076-.016-.021-.044-.036-.069-.036-.008 0-.588-.023-1.053-.252-.348-.17-.582-.451-.743-.898-.221-.607.114-1.012.433-1.408.242-.299.47-.583.419-.923-.008-.055-.057-.093-.112-.082-.052.004-.085.049-.085.094v.013c.006.024.008.047.008.068 0 .238-.18.456-.387.713-.248.307-.544.669-.544 1.148 0 .139.025.285.083.442.098.274.228.49.389.663-.348-.092-.863-.258-1.31-.55-.019-.011-.041-.011-.06-.011.062-.394 0-.979-.03-1.197-.008-.057-.058-.093-.109-.085-.054.007-.092.054-.086.106.078.58.084 1.272-.044 1.379l-.208.157-.503.398-.485.39-.149.115c-.12.107-.458.093-.662.091l-.13-.007s-.152 0-.325.005c.044-.102.078-.206.04-.237-.061-.039-.233.136-.333.24h-.195c.106-.168.236-.362.295-.401l.201-.014c.163 0 .362.004.539-.085.293-.149.334-.406.346-.494.024-.118-.181-.75-.287-.903-.122-.177-.635-.528-1.021-.608-.283-.061-.771.026-1.06.078l-.16.025-.082.009c-.12.011-.384.031-.504-.066.083-.038.175-.102.224-.198l.006-.195c-.158-.402-.479-.301-.616-.257l-.069.02c.004 0-.215-.031-.333-.276l.185-.103c.049-.024.065-.083.039-.132-.024-.043-.082-.06-.13-.036l-.19.103c-.022-.047-.031-.09-.022-.128.013-.083.082-.151.19-.198.024-.011.047-.034.055-.058.002-.002.112-.298.8-.662l.414-.222c.57-.303 1.019-.544 1.345-.609l1.086-.132.333-.154c.332-.17.832-.428 1.432-.544.049-.02 3.134-1.282 5.288 1.26.603.709.85 1.605.712 2.577"/><path d="m14.205 40.499c-.1-.051-.212-.056-.313-.021-.193.07-.252.276-.145.325s.167-.058.208-.072c.016-.006.057-.029.122-.006.069.029.066.074.069.085.008.023.01.122.098.139.086.021.274-.302-.039-.45"/><path d="m12.52 41.763c-.136.277.222.627.34.571.117-.056-.161-.294-.085-.454.085-.172.687-.426.679-.52-.01-.099-.809.141-.934.403"/><path d="m19.764 46.894c-.277-.01-.541-.044-.563.082-.016.123.273.161.562.172.201.005.547-.038.531-.149-.025-.108-.345-.098-.53-.105"/><path d="m19.079 47.512c-.335-.009-.65-.04-.675.083-.022.126.326.16.675.17.242.01.662-.031.637-.146-.025-.111-.411-.096-.637-.107"/><path d="m18.481 48.149c-.311-.015-.614-.042-.636.077-.017.122.305.155.636.166.224.007.622-.034.598-.141-.023-.106-.387-.095-.598-.102"/><path d="m17.93 48.814c-.235-.009-.458-.038-.474.063-.014.106.226.136.474.146.165.004.459-.029.441-.124-.017-.09-.287-.08-.441-.085"/><path d="m12.697 41.418.076-.023c.077-.024.114-.103.089-.175s-.104-.114-.177-.09l-.076.026c-.077.024-.117.102-.093.175.025.074.108.113.181.087"/><path d="m17.074 39.949c-.021-.034-.082-.049-.115-.032l-.78.255c-.073.028-.094.126-.061.199.033.067.126.126.199.098l.732-.398c.037-.019.053-.084.025-.122"/><path d="m17.145 40.745c.039-.013.063-.073.044-.114-.014-.041-.07-.066-.107-.056l-.606.087c-.077.02-.114.111-.094.189.02.07.102.146.181.126z"/><path d="m17.11 41.289-.477-.021c-.07.007-.115.084-.109.151.008.07.067.146.139.141l.482-.096c.039-.005.073-.062.063-.107s-.063-.073-.098-.068"/><path d="m17.015 41.961-.356-.081c-.063-.002-.112.063-.118.124-.002.062.046.136.108.139l.374-.024c.039.002.073-.044.071-.083-.004-.038-.044-.073-.079-.075"/><path d="m20.262 39.54c-.076-.019-.15.03-.168.103-.019.075.026.15.106.168 0 0 .411.123.729.252.057.024.123.008.155-.052.031-.051.006-.121-.048-.149-.356-.182-.757-.322-.774-.322"/><path d="m20.423 40.193c-.071-.017-.139.024-.154.09-.017.068.024.137.095.151.002.002.307.081.549.182.051.019.114.008.139-.047.028-.048.006-.106-.043-.133-.319-.163-.572-.24-.586-.243"/><path d="m20.456 40.798c-.059-.008-.117.02-.128.074-.014.056.02.109.077.124.002 0 .286.083.381.121.049.02.106.007.128-.038.024-.044.008-.098-.041-.121-.287-.149-.363-.153-.417-.16"/><path d="m20.421 41.332c-.041 0-.101.02-.112.068-.014.049.019.1.067.109.004.003.172.036.25.061.044.017.091.007.112-.032.022-.041.006-.089-.035-.108-.087-.053-.241-.098-.282-.098"/><path d="m22.298 40.975c-.288-.274-.435-.366-.448-.372-.066-.039-.156-.02-.193.049-.042.063-.018.15.051.189 0 0 .163.08.43.291.05.041.118.044.164 0 .043-.044.043-.114-.004-.157"/><path d="m21.732 41.244c-.063-.036-.138-.011-.171.052-.036.059-.011.134.051.17 0 0 .095.029.303.183.049.038.108.038.146-.006.041-.038.035-.104-.008-.143-.265-.237-.31-.25-.321-.256"/><path d="m21.55 41.763c-.054-.019-.114-.009-.141.037-.03.051-.014.109.035.138.002 0 .106.063.188.128.042.033.095.033.134 0 .035-.034.035-.094-.002-.128-.039-.038-.16-.149-.214-.175"/><path d="m21.338 42.191c-.042-.015-.102-.019-.13.02-.033.043-.022.1.018.132.002 0 .039.014.1.067.036.029.083.039.12.01s.039-.077.009-.117c-.066-.073-.082-.095-.117-.112"/><path d="m22.666 42.298c.028.044.085.058.128.034.043-.027.06-.083.033-.129-.026-.046-.079-.144-.124-.183-.047-.034-.11-.038-.148 0-.039.039-.039.104 0 .144 0 .003.052.046.111.134"/><path d="m22.397 42.4c-.041-.024-.096-.034-.136.003-.036.033-.036.094.002.128s.057.051.063.053c.039.04.076.055.114.03.043-.021.053-.068.03-.111-.019-.037-.04-.084-.073-.103"/><path d="m28.297 32.08h-.551l-.539-.345c-.027-.021-.057-.031-.089-.031h-.706c-.138 0-.252-.082-.411-.194-.24-.173-.571-.407-1.162-.407-.673 0-1.002.256-1.161.461-.161-.214-.49-.461-1.153-.461-.591 0-.923.234-1.165.407-.159.112-.272.194-.412.194h-.702c-.039 0-.071.011-.096.036l-.533.34h-.553c-.076 0-.139.063-.139.139v4.781c0 .078.063.141.139.141h3.776c.084.078.283.226.591.282.145.023.392.019.52-.005.295-.054.488-.199.572-.277h3.774c.079 0 .139-.063.139-.141v-4.782c0-.075-.06-.138-.139-.138m-4.474-.236c0 .015.152-.466 1.016-.466.498 0 .76.188.993.354.18.126.352.247.58.247h.564v3.894h-.574c-.191 0-.395-.087-.632-.186-.293-.125-.629-.266-1.021-.266-.433 0-.765.245-.925.391v-3.968zm-3.434.136h.56c.231 0 .4-.121.583-.247.232-.166.492-.354.994-.354.86 0 1.013.48 1.017.5 0 0-.004 3.573-.004 3.935-.16-.146-.49-.391-.929-.391-.389 0-.722.141-1.019.266-.236.099-.441.186-.63.186h-.571v-3.895zm-.602.322c.055-.036.195-.122.315-.203v3.913c0 .075.065.139.145.139h.713c.252 0 .49-.103.746-.209.279-.119.574-.242.903-.242.471 0 .822.397.825.397.024.032.065.049.104.049l.141.005h.003l.141-.005c.041 0 .079-.017.106-.049.004 0 .352-.397.819-.397.335 0 .626.123.907.242.254.106.496.209.747.209h.716c.075 0 .142-.063.142-.139v-3.913c.122.081.26.167.317.203v3.97h-3.191c-.041 0-.076.015-.104.045-.002 0-.214.213-.525.251l-.138.003c-.317-.034-.539-.254-.539-.254-.028-.03-.066-.045-.104-.045h-3.19v-3.97zm8.366 4.56h-3.689c-.041 0-.082.018-.11.052 0 0-.161.179-.458.233-.092.019-.31.023-.417.002-.305-.054-.47-.235-.473-.238-.028-.031-.066-.049-.107-.049h-3.691v-4.505h.292v4.056c0 .076.065.139.142.139h3.281c.089.081.331.26.668.294h.202c.324-.039.555-.213.648-.294h3.278c.076 0 .142-.063.142-.139v-4.056h.292z"/><path d="m21.003 32.683c.068-.004.321-.023.636-.159l.232-.109.441-.173c.259-.062.531-.033.616-.017-.033-.007-.055-.038-.049-.072.008-.036.043-.057.076-.049-.006 0-.335-.065-.669.017l-.469.184-.229.108c-.294.126-.524.143-.59.145-.036.006-.063.03-.063.064.003.036.033.061.068.061"/><path d="m21.003 33.505c.071-.005.323-.025.636-.156l.235-.112.438-.17c.259-.068.531-.038.616-.018.035.004.07-.017.076-.051.006-.033-.016-.066-.049-.072-.006 0-.332-.065-.669.021l-.466.18-.232.11c-.294.123-.524.141-.593.146-.033 0-.06.028-.06.063.003.032.033.061.068.059"/><path d="m21.003 34.328c.068-.002.323-.021.636-.158l.232-.106.441-.175c.259-.063.531-.034.616-.021.035.009.07-.014.076-.045.006-.036-.016-.068-.049-.072-.006-.003-.335-.066-.669.019l-.469.181-.229.109c-.294.126-.524.143-.59.145-.036 0-.063.029-.063.063.003.033.033.062.068.06"/><path d="m21.639 34.994.235-.11.438-.172c.259-.065.531-.034.616-.018-.033-.009-.055-.038-.049-.072.008-.034.041-.06.076-.051-.006 0-.335-.063-.669.021l-.466.179-.232.108c-.291.126-.524.145-.59.148-.036.002-.063.028-.063.063.002.034.033.06.068.06.071-.004.323-.018.636-.156"/><path d="m24.406 32.225c.084-.017.356-.045.615.017l.438.173.234.109c.315.136.571.155.639.159.034 0 .066-.025.066-.062 0-.034-.028-.059-.061-.064-.065-.002-.299-.019-.59-.145l-.232-.108-.466-.184c-.335-.082-.669-.017-.669-.017-.036.008-.055.039-.05.076.007.029.044.051.076.046"/><path d="m24.406 33.049c.082-.021.356-.045.615.018l.438.17.234.112c.315.131.571.151.637.156.036.002.065-.027.068-.06 0-.034-.028-.063-.061-.063-.065-.006-.299-.023-.59-.146l-.232-.11-.466-.18c-.337-.086-.667-.021-.669-.021-.036.006-.055.039-.05.072.007.036.044.056.076.052"/><path d="m24.406 33.868c.084-.014.359-.043.615.021l.438.175.234.106c.315.137.571.156.639.158.034.002.066-.026.066-.061s-.028-.063-.061-.063c-.065-.002-.299-.019-.59-.145l-.232-.109-.466-.181c-.267-.067-.555-.044-.669-.019-.036.004-.055.036-.052.072.009.032.046.054.078.046"/><path d="m25.46 34.883.234.11c.315.139.571.152.639.156.034 0 .066-.025.066-.06s-.028-.061-.061-.063c-.065-.004-.302-.022-.59-.148l-.232-.108-.466-.179c-.267-.068-.555-.044-.669-.021-.036.01-.055.042-.052.073.008.033.044.055.077.05.084-.017.356-.048.615.018z"/><path d="m9.56 32.683c.071-.004.326-.023.639-.159l.234-.109.441-.173c.256-.062.531-.033.612-.017-.033-.007-.055-.038-.047-.072.009-.036.039-.057.074-.049-.002 0-.332-.065-.669.017l-.466.184-.228.108c-.296.126-.528.143-.594.145-.032.006-.063.03-.06.064.003.036.029.061.064.061"/><path d="m9.56 33.505c.071-.005.326-.025.639-.156l.236-.112.438-.17c.259-.068.531-.038.612-.018.035.004.068-.017.076-.051.008-.033-.016-.066-.049-.072-.002 0-.332-.065-.669.021l-.466.18-.228.11c-.294.123-.526.141-.594.146-.032 0-.063.028-.06.063.004.032.03.061.065.059"/><path d="m9.56 34.328c.071-.002.326-.021.639-.158l.234-.108.441-.173c.256-.063.531-.034.612-.021.035.009.071-.014.076-.045.008-.036-.016-.068-.049-.072-.002-.003-.334-.066-.669.019l-.466.181-.228.109c-.294.126-.526.143-.594.145-.032 0-.063.029-.06.063.003.033.029.062.064.06"/><path d="m9.56 35.15c.071-.004.326-.018.639-.156l.236-.11.438-.172c.256-.065.531-.034.612-.018-.033-.009-.055-.038-.047-.072.009-.034.039-.06.074-.051-.002 0-.332-.063-.669.021l-.466.179-.228.108c-.292.126-.526.145-.594.148-.032.002-.063.028-.06.063.004.035.03.06.065.06"/><path d="m13.015 32.153c.006.034-.016.065-.049.072.084-.017.36-.045.616.017l.438.173.234.109c.316.136.57.155.638.159.035 0 .065-.025.065-.062.002-.034-.028-.059-.06-.064-.062-.002-.293-.019-.59-.145l-.229-.108-.466-.184c-.338-.082-.669-.017-.671-.017.033-.007.07.014.074.05"/><path d="m12.966 33.049c.084-.021.357-.051.616.018l.438.17.234.112c.313.131.567.151.638.156.035.002.065-.027.065-.06.002-.034-.028-.063-.06-.063-.062-.006-.297-.023-.59-.146l-.232-.11-.463-.18c-.34-.086-.669-.021-.671-.021-.033.006-.055.039-.046.072.003.036.036.056.071.052"/><path d="m13.582 33.888.438.173.234.108c.313.137.567.156.638.158.035.002.065-.026.065-.061.002-.034-.028-.063-.06-.063-.062-.002-.297-.019-.59-.145l-.229-.109-.466-.181c-.334-.085-.669-.021-.671-.019-.033.004-.055.036-.046.072.005.031.038.054.073.045.083-.012.358-.041.614.022"/><path d="m14.02 34.883.234.11c.313.139.567.152.638.156.035 0 .065-.025.065-.06.002-.034-.028-.061-.06-.063-.062-.004-.297-.022-.59-.148l-.232-.108-.463-.179c-.338-.084-.669-.021-.671-.021.035-.009.071.017.076.051.006.034-.016.063-.049.072.084-.017.36-.048.616.018z"/><path d="m16.835 32.089h-.551l-.533-.337c-.025-.024-.061-.04-.096-.04h-.701c-.142 0-.256-.082-.412-.193-.242-.172-.572-.408-1.165-.408-.669 0-1.001.257-1.16.461-.161-.211-.493-.461-1.151-.461-.596 0-.923.236-1.165.408-.158.111-.273.193-.411.193h-.705c-.038 0-.074.016-.101.04l-.527.337h-.548c-.08 0-.145.063-.145.138v4.784c0 .077.065.138.145.138h3.77c.087.08.285.23.588.284.148.027.397.02.523-.005.297-.052.487-.199.571-.279h3.774c.078 0 .141-.061.141-.138v-4.784c.001-.074-.062-.138-.141-.138m-4.471-.236c0 .014.152-.465 1.013-.465.498 0 .762.189.996.354.181.132.349.25.581.25h.559v3.892h-.571c-.193 0-.397-.084-.635-.188-.293-.121-.623-.264-1.018-.264-.432 0-.765.243-.926.392v-3.971zm-3.437.139h.563c.23 0 .397-.118.576-.25.235-.164.498-.354 1-.354.856 0 1.009.479 1.017.499 0 0-.004 3.574-.004 3.936-.164-.148-.494-.392-.925-.392-.395 0-.726.143-1.021.264-.237.104-.441.188-.632.188h-.574zm-.602.318c.054-.031.196-.119.318-.198v3.909c0 .076.063.139.142.139h.715c.253 0 .49-.099.747-.209.28-.117.571-.242.907-.242.468 0 .813.399.819.399.025.034.065.05.106.05l.139.002h.002.003l.139-.002c.042 0 .081-.016.109-.05.002 0 .351-.399.819-.399.335 0 .624.125.907.242.253.11.493.209.746.209h.713c.08 0 .145-.063.145-.139v-3.909c.123.079.261.167.316.198v3.973h-3.19c-.039 0-.074.016-.101.043-.003.004-.218.216-.526.252h-.139c-.315-.028-.539-.248-.542-.252-.027-.027-.065-.043-.103-.043h-3.191zm8.368 4.563h-3.691c-.042 0-.083.018-.107.048-.002.002-.161.185-.457.235-.094.02-.31.021-.419.005-.305-.056-.473-.238-.473-.243-.025-.027-.065-.045-.107-.045h-3.691v-4.505h.293v4.056c0 .074.063.141.14.141h3.28c.093.077.336.26.673.294l.198-.004c.327-.038.559-.213.65-.29h3.276c.079 0 .141-.066.141-.141v-4.056h.294z"/><path d="m17.946 27.625c-1.806 0-3.721.423-3.721 1.206 0 .358.405.645 1.012.843.065.023.245.07.261.037.003-.008-.224-.107-.224-.107-.552-.244-.765-.553-.765-.772 0-.438 1.468-.93 3.436-.93 1.965 0 3.435.491 3.435.93 0 .22-.197.527-.734.771 0 0-.207.085-.218.104-.022.031.234-.034.234-.034.604-.201 1.001-.483 1.001-.841.001-.785-1.915-1.207-3.717-1.207"/><path d="m22.212 26.273c-.169.209-.522.804-.564.989 0 .005-.002.019-.002.019s-.014-.007-.019-.008c-.148-.083-.338-.175-.585-.267-.781-.286-1.901-.452-3.069-.452h-.01c-1.169 0-2.284.166-3.068.452-.249.092-.438.184-.586.267-.002.001-.016.008-.016.008s-.006-.014-.006-.019c-.037-.186-.394-.78-.563-.989-.049-.06-.115 0-.084.053.28.523.364.963.395 1.132.016.079.026.142.098.173.044.021.096.016.136-.011.163-.104.378-.225.73-.354.746-.275 1.83-.432 2.965-.432h.01c1.139 0 2.216.156 2.967.432.346.13.564.25.728.354.041.026.092.031.136.011.071-.031.084-.094.098-.173.033-.169.112-.608.395-1.132.028-.053-.037-.113-.086-.053"/><path d="m18.221 27.225c0-.138-.112-.249-.254-.249-.139 0-.254.111-.254.249 0 .137.116.246.254.246.142 0 .254-.109.254-.246"/><path d="m16.431 27.365c0-.139-.114-.247-.252-.247-.142 0-.254.108-.254.247 0 .136.112.247.254.247.138 0 .252-.112.252-.247"/><path d="m14.607 28.125c.12-.066.169-.217.099-.337-.069-.116-.224-.161-.344-.095-.122.066-.166.215-.098.336.069.121.225.163.343.096"/><path d="m15.447 27.564c0-.07-.061-.13-.134-.13s-.132.06-.132.13c0 .073.059.13.132.13s.134-.057.134-.13"/><path d="m17.2 27.267c0-.07-.059-.128-.133-.128-.07 0-.131.058-.131.128s.061.129.131.129c.074 0 .133-.059.133-.129"/><path d="m20.004 27.365c0-.139-.114-.247-.253-.247s-.256.108-.256.247c0 .136.118.247.256.247.139 0 .253-.112.253-.247"/><path d="m21.566 27.694c-.122-.066-.277-.021-.342.095-.071.12-.024.271.096.337.122.066.277.024.344-.096.066-.121.026-.27-.098-.336"/><path d="m20.75 27.564c0-.07-.061-.13-.136-.13-.071 0-.131.06-.131.13 0 .073.06.13.131.13.076 0 .136-.057.136-.13"/><path d="m18.991 27.267c0-.07-.055-.128-.13-.128-.074 0-.131.058-.131.128s.057.129.131.129c.076 0 .13-.059.13-.129"/><path d="m17.962 24.208c-.145 0-.258.112-.258.25 0 .139.114.251.258.251.141 0 .252-.112.252-.251.001-.137-.111-.25-.252-.25"/><path d="m17.962 23.507c-.145 0-.258.11-.258.249s.114.252.258.252c.141 0 .252-.113.252-.252s-.111-.249-.252-.249"/><path d="m17.962 22.803c-.145 0-.258.111-.258.252 0 .14.114.25.258.25.141 0 .252-.11.252-.25.001-.14-.111-.252-.252-.252"/><path d="m16.718 23.369c.142 0 .256-.109.256-.249 0-.137-.114-.25-.256-.25s-.256.113-.256.25c0 .139.114.249.256.249"/><path d="m15.876 23.101c.142 0 .259-.113.259-.252s-.117-.25-.259-.25c-.141 0-.255.111-.255.25s.114.252.255.252"/><path d="m15.005 22.914c.142 0 .259-.112.259-.251s-.117-.249-.259-.249-.256.11-.256.249.114.251.256.251"/><path d="m14.124 23.034c.142 0 .256-.112.256-.251 0-.138-.114-.252-.256-.252-.145 0-.256.114-.256.252-.001.138.111.251.256.251"/><path d="m13.359 23.502c.142 0 .256-.111.256-.252 0-.139-.114-.252-.256-.252-.145 0-.259.113-.259.252 0 .141.114.252.259.252"/><path d="m12.915 24.262c.14 0 .256-.112.256-.253 0-.138-.116-.248-.256-.248-.142 0-.258.11-.258.248 0 .141.116.253.258.253"/><path d="m13.179 24.892c0-.137-.115-.248-.26-.248-.138 0-.255.111-.255.248 0 .14.117.251.255.251.145 0 .26-.111.26-.251"/><path d="m13.241 25.458c-.144 0-.259.112-.259.247 0 .14.115.251.259.251.14 0 .256-.111.256-.251 0-.134-.116-.247-.256-.247"/><path d="m20.921 29.061c0-.609-1.946-.771-2.976-.771-1.028 0-2.979.161-2.979.771 0 .606 1.95.769 2.979.769 1.03 0 2.976-.163 2.976-.769m-2.975.491c-1.775 0-2.692-.345-2.692-.491 0-.148.917-.491 2.692-.491 1.777 0 2.693.343 2.693.491 0 .147-.916.491-2.693.491"/><path d="m17.553 22.277h.272v.277c0 .074.063.137.141.137.079 0 .142-.063.142-.137v-.277h.27c.078 0 .141-.062.141-.139 0-.075-.063-.138-.141-.138h-.27v-.257c0-.077-.063-.139-.142-.139-.078 0-.141.062-.141.139v.257h-.272c-.079 0-.142.063-.142.138.001.077.064.139.142.139"/><path d="m14.197 26.377.003.007.008.017v-.005c.125.242.446.449.857.319.207-.065.422-.105.547-.343.069-.121.115-.28-.024-.455-.035-.046-.141-.1-.187-.075-.039.018-.065.096-.019.148.065.073.029.21-.085.269-.082.042-.171.003-.179-.03-.005-.015.149-.112.01-.226-.103-.077-.378-.341-.005-.511.294-.137.521.252.548.305s.059.032.049-.021c-.057-.276-.297-.363-.36-.672-.046-.228.12-.41.204-.492.033-.024.087-.034.134-.016.114.043.321.149.37.37.063.306-.125.477-.067.753.01.055.051.062.053.003.006-.061.061-.502.384-.488.415.018.262.36.199.476-.085.155.092.185.097.195.014.03-.051.114-.154.103-.128-.011-.215-.125-.183-.218.022-.065-.035-.127-.076-.128-.054-.006-.131.086-.145.14-.058.211.049.342.157.432.21.17.529.149.7.131.58-.062.616-.404.616-.404-.12.053-.384.144-.384.144-.011.002-.022.003-.033.003-.049 0-.087-.037-.087-.086v-.543c0-.047.039-.083.087-.083 0 0 .027.001.035.003l.396.155-.112-.311c-.006-.01-.006-.026-.006-.035 0-.049.039-.087.087-.087h.334.334c.049 0 .09.038.09.087 0 .009-.002.025-.006.035l-.114.311.398-.155c.011-.002.035-.003.035-.003.049 0 .087.036.087.083v.543c0 .049-.039.086-.087.086-.011 0-.022-.001-.03-.003 0 0-.267-.091-.389-.144 0 0 .037.343.618.404.168.019.492.039.7-.131.107-.09.218-.221.157-.432-.016-.054-.091-.146-.145-.14-.041.001-.098.063-.076.128.031.093-.055.207-.185.218-.098.012-.167-.072-.153-.103.006-.011.18-.04.1-.195-.065-.115-.214-.458.197-.476.322-.014.378.428.385.488.004.059.042.052.053-.003.055-.276-.132-.447-.067-.753.047-.221.256-.327.373-.37.046-.019.099-.009.131.016.084.082.25.265.204.492-.059.309-.302.396-.36.672-.012.054.023.074.049.021.03-.053.254-.441.547-.305.372.17.099.434-.002.511-.143.113.014.211.008.226-.008.033-.098.072-.179.03-.118-.059-.15-.195-.085-.269.049-.053.02-.131-.016-.148-.049-.024-.155.029-.19.075-.14.175-.091.334-.024.455.125.237.339.277.549.343.409.13.732-.077.854-.319v.005l.008-.017v-.007c.272-.357.905-1.198.905-1.966 0-.76-.681-1.331-1.588-1.331-.397 0-.773.136-1.135.264-.394.143-.772.267-1.159.229v-.777c0-.076-.063-.141-.142-.141s-.145.064-.145.141v2.046h-1.007v-2.046c0-.076-.065-.141-.145-.141-.081 0-.144.064-.144.141v.777c-.384.037-.762-.087-1.157-.229-.362-.128-.738-.264-1.135-.264-.907 0-1.59.571-1.59 1.331 0 .768.635 1.609.904 1.966m5.817-2.77c.357-.13.692-.25 1.038-.25.744 0 1.305.452 1.305 1.055 0 .196-.055.404-.136.611-.033-.139-.095-.284-.2-.413-.237-.302-.624-.454-1.146-.447-.234-.239-.693-.413-1.17-.422-.04 0-.079.008-.12.009.147-.043.289-.095.429-.143m-1.257.252c.09.008.179.008.265.002-.096.039-.184.086-.265.141zm.011.511c.267-.315.7-.356.932-.353.479.011.876.196 1.01.369.029.036.073.057.119.056.457-.015.782.1.967.336.206.261.199.624.147.793v.014c-.049.072-.092.144-.137.212.044-.492-.28-.833-.618-1.001 0 0-.1-.044-.136.003-.07.098.612.562.438 1.148-.106.342-.296.467-.449.515-.019-.001-.033.005-.053-.002.075-.063.115-.147.115-.236 0-.026-.004-.05-.008-.078-.003-.005-.008-.008-.008-.016.092-.097.198-.24.198-.417 0-.017 0-.036-.002-.051-.014-.125-.087-.3-.352-.42-.029-.016-.059-.023-.092-.033.005-.018.011-.031.016-.05.008-.045.014-.088.014-.132 0-.317-.229-.57-.382-.678 0 0-.112-.081-.236-.048-.183.048-.583.231-.662.608-.002.021-.002.036-.005.056-.033-.002-.063-.011-.098-.009-.205.01-.333.077-.414.154 0-.064-.071-.12-.193-.094.073-.099.204-.239.348-.346.193-.146.415-.229.415-.262-.004-.035-.082-.061-.181-.055-.11.008-.238.055-.285.075-.171.082-.311.193-.419.304v-.359c.003 0 .008 0 .011-.003m-1.908.741c-.077-.077-.205-.145-.412-.154-.035-.002-.065.007-.094.009-.006-.02-.006-.035-.008-.056-.079-.377-.482-.561-.663-.608-.125-.033-.234.048-.234.048-.153.107-.384.36-.384.678 0 .044.006.087.014.132.002.019.008.032.017.05-.03.01-.063.018-.092.033-.264.12-.337.295-.354.42v.051c0 .177.106.32.198.417 0 .008-.002.011-.004.016-.008.028-.014.052-.014.078 0 .089.043.173.116.236-.019.007-.033.001-.051.002-.153-.048-.344-.173-.447-.515-.177-.587.508-1.051.433-1.148-.033-.047-.132-.003-.132-.003-.338.168-.663.509-.619 1.001-.044-.068-.09-.14-.136-.212 0-.004 0-.012 0-.014-.052-.169-.061-.532.144-.793.191-.236.513-.351.969-.336.046.001.091-.02.118-.056.136-.173.533-.358 1.01-.369.234-.004.667.037.934.353.002.003.008.003.008.005v.359c-.106-.11-.246-.222-.417-.304-.047-.021-.175-.067-.286-.075-.095-.006-.177.02-.18.055-.002.032.224.116.415.262.146.106.275.247.348.346-.124-.028-.197.027-.197.092m.315-1.252v.143c-.079-.055-.167-.102-.258-.141.084.006.171.006.258-.002m-2.292-.502c.346 0 .68.12 1.037.25.141.048.283.1.43.143-.041-.001-.079-.009-.123-.009-.474.009-.934.183-1.167.422-.526-.007-.91.146-1.147.447-.103.129-.163.274-.199.413-.082-.207-.136-.415-.136-.611.001-.603.561-1.055 1.305-1.055"/><path d="m19.217 23.369c.145 0 .256-.109.256-.249 0-.137-.112-.25-.256-.25s-.256.113-.256.25c0 .139.112.249.256.249"/><path d="m20.059 23.101c.141 0 .259-.113.259-.252s-.118-.25-.259-.25c-.142 0-.256.111-.256.25s.114.252.256.252"/><path d="m20.932 22.914c.14 0 .254-.112.254-.251s-.115-.249-.254-.249c-.146 0-.258.11-.258.249s.111.251.258.251"/><path d="m21.814 23.034c.138 0 .256-.112.256-.251 0-.138-.118-.252-.256-.252-.144 0-.258.114-.258.252s.114.251.258.251"/><path d="m22.577 23.502c.144 0 .258-.111.258-.252 0-.139-.114-.252-.258-.252-.142 0-.256.113-.256.252-.001.141.114.252.256.252"/><path d="m23.023 24.262c.139 0 .255-.112.255-.253 0-.138-.116-.248-.255-.248-.144 0-.262.11-.262.248.001.141.118.253.262.253"/><path d="m23.012 24.644c-.14 0-.256.111-.256.248 0 .14.116.251.256.251.142 0 .258-.111.258-.251 0-.137-.116-.248-.258-.248"/><path d="m22.694 25.458c-.142 0-.255.112-.255.247 0 .14.114.251.255.251s.259-.111.259-.251c0-.134-.118-.247-.259-.247"/><path d="m17.967 25.12h-.003z"/><path d="m26.282 10.714c.017-.047.035-.084.035-.144 0-.097-.035-.211-.149-.328-.294-.298-.772-.009-1.011.139-.022-.073-.059-.157-.129-.218.013-.04.024-.083.019-.134-.019-.179-.202-.256-.302-.297l-.02-.008c.222.019.562.019.655-.293l.013-.175c-.033-.02.223.022.223.022.319.069.801.171.975-.159.022-.048.033-.091.033-.134 0-.117-.07-.221-.12-.297 0 0-.013-.021-.027-.042.142-.069.512-.256.512-.621 0-.087-.022-.186-.073-.296-.173-.368-.557-.258-.767-.199 0 0-.034.006-.069.015v-.022c.002-.034.008-.078.008-.12 0-.086-.02-.183-.09-.262-.049-.06-.116-.099-.204-.129.089-.103.154-.224.154-.372 0-.071-.016-.149-.051-.233-.049-.115-.134-.2-.248-.245-.248-.098-.564.032-.749.117-.01-.032-.026-.067-.049-.104.019-.05.033-.102.033-.155 0-.11-.03-.208-.063-.285.13-.086.335-.246.378-.453.002-.027.008-.052.008-.078 0-.095-.035-.183-.104-.266-.269-.317-.663-.185-.854-.121 0 0-.014.004-.024.008-.063-.112-.142-.24-.356-.291-.248-.06-.502.158-.683.317 0 0-.046.035-.085.063-.01-.013-.026-.024-.026-.024l-.276-.177c-.252-.05-.527.344-.592.45 0 0-.005.001-.012.001-.041-.071-.098-.12-.144-.151.016-.016.036-.033.036-.033.132-.117.34-.297.348-.535v-.012c0-.124-.057-.241-.163-.348-.144-.14-.297-.208-.458-.207-.291.004-.513.238-.659.394 0 0-.014.014-.02.02-.018-.046-.037-.095-.065-.141.016-.046.022-.1.022-.154 0-.062-.011-.126-.033-.182-.014-.04-.047-.064-.074-.095.161-.13.371-.333.371-.559 0-.058-.012-.119-.047-.178-.142-.255-.329-.305-.449-.324 0-.002.006-.01.006-.01.006-.053.014-.131.014-.211 0-.21-.056-.461-.365-.535-.373-.088-.615.229-.749.399 0 0-.016.021-.032.042-.079-.076-.22-.202-.431-.177-.094-.15-.242-.244-.427-.267-.356-.045-.491.37-.58.644 0 0-.036.093-.051.134-.022-.003-.049-.008-.049-.008-.099-.026-.248-.065-.4.023-.144.08-.197.199-.197.335 0 .217.136.47.231.647 0 0 .022.041.044.085-.164.031-.294.086-.374.193-.041.057-.06.115-.073.173l-.063-.065c.044-.236.152-.977-.021-1.186-.052-.063-.125-.098-.205-.1-.033 0-.058.021-.087.031-.005-.273-.063-.653-.356-.745-.221-.066-.34-.004-.415.068-.177-.221-.516-.613-.897-.44-.174.081-.234.226-.234.386 0 .197.089.416.144.555 0 0 .007.018.011.026-.133.015-.341.056-.402.3-.012.036-.014.072-.014.107 0 .01.002.019.002.028-.214-.153-.5-.255-.82-.035-.162.109-.213.256-.213.412 0 .248.14.507.217.646-.123.05-.303.15-.327.382-.006.024-.006.047-.006.069 0 .438.49.577.76.654 0 0 .024.007.047.016 0 .001-.003.004-.008.007-.03.04-.166.118-.226.118 0-.006-.098-.061-.098-.061-.226-.141-.699-.438-1.098-.022-.092.097-.128.197-.128.292 0 .213.175.408.272.521 0 0 .082.098.087.103-.014 0-.046.086-.046.086l-.089.282c0 .027.005.049.008.073-.006.003-.035.023-.063.042-.004-.056-.017-.133-.017-.133-.017-.252-.038-.603-.323-.688-.177-.053-.289.052-.362.133-.004-.006-.004-.021-.004-.021-.045-.274-.118-.733-.472-.742-.193-.005-.295.179-.366.313 0 0-.014.018-.024.038-.011-.014-.024-.028-.024-.028-.112-.134-.32-.38-.602-.264-.242.101-.302.313-.302.517 0 .134.024.261.043.353 0 0 .006.037.014.072-.02.009-.038.02-.038.02-.115.051-.272.123-.33.28-.016.043-.024.086-.024.128 0 .283.352.496.621.629-.068.044-.13.095-.177.146-.161-.082-.348-.117-.525-.053-.205.074-.246.25-.246.389 0 .023.005.038.005.057-.175-.042-.466-.084-.64.261-.051.11-.073.205-.073.289 0 .099.029.177.061.234.12.222.378.333.574.394-.041.055-.087.112-.097.193l.1.302c.189.216.463.106.662.024.229-.087.313-.106.371-.038-.004.029-.064.12-.139.204-.049-.013-.102-.016-.15-.008-.193.032-.271.162-.305.269-.172-.146-.447-.372-.744-.311-.231.05-.284.219-.284.363 0 .066.012.131.02.176v.008c-.014-.002-.036-.007-.036-.007-.171-.036-.403-.085-.586.031-.098.064-.16.167-.185.307-.009.039-.011.074-.011.108 0 .386.417.51.632.566-.053.071-.115.167-.115.284 0 .083.033.172.133.259.346.305.684.082.851-.026l.018-.014c.002.057.014.111.026.158 0 0 .007.056.012.087-.03.011-.065.021-.065.021-.142.04-.333.094-.419.255-.025.052-.042.11-.042.17 0 .054.015.111.033.172.136.375.532.353.722.345 0 0 .03 0 .058-.002.003.016.005.032.005.032.01.101.027.254.167.377.346.31.819-.074 1.023-.235h.002c.042.026.079.055.115.077.024.086.078.152.114.196-.019.017-.036.035-.036.035-.125.114-.375.341-.375.62 0 .095.03.195.103.3.173.25.56.07.869-.077 0 0 .182-.075.206-.086 0 .002-.002.002-.002.003 0 .015.008.036.008.036.03.112.098.366.482.29.452-.091.58-.428.669-.672.03-.072.058-.134.087-.185.037.038.167.181.167.181l.195-.031c.259-.155.455-.748.515-.961.544.25 1.053 1.014 1.133 1.212.052.127.255.447.558.918.177.275.389.605.43.7-.12.758-.478 1.327-1.017 1.593l-.224.113c-.504.245-1.258.614-1.614.905-.039-.005-.077-.007-.12-.007-.299 0-.476.083-.565.141-.199-.098-.425-.156-.616-.156-.551-.002-.806.254-.921.472-.179.337-.127.771.026.981.206.288.511.433.909.433.28 0 .443-.077.536-.14.107.055.289.124.551.124.305 0 .486-.076.585-.132.158.088.333.147.511.147.259 0 .411-.074.502-.139.1.057.269.123.508.123.275 0 .447-.069.545-.126.157.087.334.142.517.142.256 0 .411-.074.499-.139.101.057.272.123.508.123.272 0 .445-.068.542-.125.155.086.332.141.511.141.26 0 .412-.074.498-.139.102.057.27.123.512.123.272 0 .447-.068.539-.125.161.086.335.141.518.141.256 0 .411-.074.498-.139.102.057.269.123.509.123.311 0 .49-.089.574-.147.203.102.433.161.626.163.439.002.769-.174.935-.492.171-.341.117-.77-.042-.968-.226-.29-.514-.426-.905-.426-.281 0-.445.076-.537.139-.081-.041-.221-.094-.4-.115-.163-.321-.413-.425-1.279-.781l-.12-.048c-.923-.38-1.135-.742-1.301-1.032l-.024-.041c-.153-.259-.472-1.852.187-2.835.374-.558.839-.809 1.101-.916.048.274.131.645.27.792l.228.116s.065-.034.128-.066c.016.043.037.082.037.082.113.275.268.645.573.683.246.033.348-.067.408-.155.133.133.32.317.553.305.222-.008.334-.139.395-.211.14.045.486.159.696-.146.059-.083.079-.159.079-.228 0-.18-.161-.305-.242-.369 0 0-.011-.007-.017-.01.047-.044.126-.126.128-.235.087 0 .175-.016.256-.068.136-.082.154-.209.163-.284.005-.001.014-.001.02 0 .138.018.427.049.543-.213.024-.063.039-.12.044-.17.125-.054.182-.158.212-.24.185.083.438.193.634.109.204-.094.229-.315.242-.452.162.032.423.082.621-.052.109-.077.176-.195.199-.356.006-.034.012-.065.012-.097 0-.475-.557-.574-.785-.606m-1.316-.462c-.018.055-.062.092-.116.099.039-.025.076-.058.116-.099m-.203-.191c0-.005-.09.072-.09.072l-.125.108-.051.112c-.049.168-.167.506-.812.626-.011-.021-.024-.039-.036-.061-.092-.142-.198-.303-.226-.528-.041-.314 0-.554.039-.7.521-.054.882.014 1.018.195.013.016.149.099.149.099.036.014.123.052.134.077m-3.012.021.087.202.04.053c-.189.136-.484.059-.675.008l-.256-.019c-.106.046-.122.153-.136.224l-.017.071c-.1.02-.598-.091-.767-.185.111-.15.228-.274.343-.346.002-.002.005-.006.009-.011.138-.067.315-.144.47-.195.346-.112.809-.313.776-.394-.037-.081-.512.017-.864.129-.28.088-.7.247-.887.32.106-.323.291-.709.441-.732.054.107.149.119.177.117l.259-.182c.343-.323.465-.368.506-.349l.038.044.137.131c.1.044.188-.016.301-.091.068-.042.221-.142.272-.123.069.027.079.056.098.104l.12.149.287-.004c.116-.025.386-.079.417-.002.082.189-.005.256-.217.361-.103.051-.21.104-.21.223l.052.179.024.112c-.018.056-.068.083-.134.096-.024-.002-.045 0-.07.012-.079.004-.177-.003-.294-.021l-.265.018c-.042.002-.054-.018-.078.019-.027.038 0 .041.016.082m-1.913 1.766c-.131.139-.253.283-.356.413 0-.041.005-.078.005-.12.017-.313.033-.665.141-.95.073-.198.163-.372.254-.524.094.051.218.097.35.133-.008.087-.043.105-.122.145l-.256.181c-.185.225-.136.538-.016.722m-.61-2.392c.028-.131.061-.267.104-.415.077-.243.577-1.089.455-1.135-.12-.046-.596.783-.681 1.055-.024.083-.049.164-.076.24-.107-.208-.205-.468-.205-.664 0-.085.02-.158.064-.208.036-.043.063-.043.11-.045l.112-.024c.059-.028.079-.07.079-.119 0-.056-.024-.117-.05-.174-.053-.124-.149-.353-.149-.541 0-.057.01-.11.033-.156.032-.068.09-.117.183-.149 0 .004.051.032.051.032.098.066.179.067.242.009l.061-.175c.019-.131.075-.53.25-.53l.073.028c.032.02.105.062.187.022l.071-.056c.295-.251.374-.231.379-.227.049.026.063.198.068.276.013.131.019.233.108.288l.205.042.1.015c.106.246-.096.45-.313.615-.055.042-.123.095-.101.188 0-.001.12.121.12.121l.086.06c.033.125-.346.326-.468.391l-.206.174c-.035.031-.059.019-.053.063.004.046.033.03.073.051l.163.083.061.012c.067.296-.768.718-1.136.853m.493.086c-.093.222-.152.439-.177.54-.061.029-.124.057-.175.082 0 0-.047.019-.085.038 0-.005 0-.023 0-.023-.011-.18-.024-.322-.051-.43.104-.035.287-.108.488-.207m-.79-.129c.008-.011.016-.022.03-.031.006-.002.012-.002.019-.005-.007.02-.012.04-.019.063-.01-.008-.018-.023-.03-.027m.156.385h.002c-.006.018-.008.026-.015.024.007-.007.009-.016.013-.024m-.289-.431c-.069-.006-.142.004-.191.015h-.002c-.028-.209-.128-.631-.327-.792-.183-.151-.409-.006-.537.078-.12-.239-.364-.581-.637-.644-.01-.015-.026-.028-.042-.04-.112-.091-.226-.201-.208-.38.014-.084.104-.125.193-.158.145-.067.136-.178.125-.326-.028-.332-.008-.546.174-.588.237-.051.433.177.618.42l.208.194c.128.038.215-.064.277-.133.085-.101.104-.106.128-.097.112.055.165.199.181.269-.032.078-.049.16-.049.245 0 .224.086.445.152.597-.058.018-.123.052-.183.122-.095.105-.136.243-.136.391 0 .289.144.618.256.827m-.368 1.708c.051.221.069.443.069.619 0 .069 0 .131-.006.184-.008.167-.109.565-.188.828-.019-.034-.46-.75-.46-.75-.224-.365-.277-.698-.292-.947.006.005.009.006.017.007.364.146.517.118.793.072zm.171-.615c-.054-.042-.122-.102-.187-.187-.027-.037-.167-.195-.354-.334-.327-.235-.765-.476-.806-.401-.041.076.348.331.623.572.191.165.319.366.398.516.008.015.013.033.019.045.024.044.036.091.055.137l-.036.005c-.262.045-.349.062-.64-.052l-.114-.067c.017-.034.017-.198.017-.198 0-.042.016-.055-.017-.081-.033-.027-.041-.01-.085-.003l-.261.058c-.14.059-.37.156-.502.099-.016-.005-.067-.028-.1-.125-.077-.209-.008-.273.059-.336.044-.042.11-.103.094-.204-.022-.123-.148-.145-.292-.169-.271-.046-.428-.097-.428-.221 0-.078.115-.193.188-.247.033-.022.051-.055.06-.091.006-.036-.002-.071-.024-.104-.011-.011-.234-.321-.017-.479.203-.149.332-.036.362.004.041.045.101.062.158.042.057-.019.095-.071.098-.129 0-.006.002-.193.138-.223.12-.028.427.325.522.597.014.04.057.084.098.099.087.029.164-.018.256-.08.044-.026.174-.113.209-.101.124.1.235.548.235.682 0 .041.035.114.067.14.077.063.175.045.261.03l.125-.012c-.004.034-.034.304-.179.818m-2.272.025c0 .004-.003.008-.003.011l-.002.093c-.02.177-.281.38-.401.46-.06-.055-.12-.089-.174-.112-.025-.078-.115-.363-.171-.708-.104-.632-.134-.862-.215-.835-.079.026-.122.227-.045.836.013.141.041.27.068.381-.022-.018-.047-.038-.068-.052l-.215-.024c-.014.002-.022.018-.039.024-.049-.282-.174-.524-.319-.663 0-.018-.002-.038-.01-.057-.019-.042-.017-.136-.008-.168.022-.006.187-.216.187-.216.022-.094-.049-.158-.122-.235-.136-.125-.248-.251-.203-.38.004-.021.021-.03.083-.052l.124-.066c.067-.06.062-.14.057-.253-.016-.248-.008-.5.228-.597h.065c.12.05.254.295.311.454.008.023.024.043.043.061.077.063.167.027.229 0 .128-.056.229-.081.326.01-.13.108-.182.243-.182.376 0 .129.049.25.103.351-.09.08-.211.223-.211.39 0 .367.397.448.631.491-.054.067-.099.152-.099.281-.002.058.01.124.032.199m-.156.975c.014.004.031.011.031.011.286.08.874.245 1.067 1.328.087.481.111.796.111 1.003 0 .138-.012.218-.024.277-.284-.211-1.074-.901-1.074-1.763 0-.014.006-.107.006-.14.001-.311-.052-.531-.117-.716m-1.735-1.661c-.059.021-.098.085-.143.14-.099-.21-.254-.381-.496-.437-.173-.038-.256.113-.312.219-.144-.097-.37-.234-.602-.185-.043.008-.086.031-.128.057-.214-.082-.396-.085-.552-.052-.005-.039-.011-.073-.016-.099-.004-.009-.15-.164-.15-.164-.147-.091-.267-.181-.226-.334.027-.115.128-.161.261-.191.044.01.085-.001.118-.025l.24-.106.049-.123c.025-.091.043-.129.08-.142.087.167.22.321.402.427.03.203.142.354.338.437.318.137.799.051 1.067-.068.061.112.154.207.22.27l.006.005c-.017.012-.102.092-.102.092-.041.048-.057.139-.057.227.001.017.003.033.003.052m-2.822.747-.046-.148c0-.01-.019-.046-.024-.053-.038-.079-.068-.147-.02-.217.049-.076.13-.082.226-.079l.11-.013c0-.001.092-.061.092-.061.109-.085.304-.238.616-.155-.033.072-.053.14-.053.202 0 .161.093.286.181.378l-.526.858c-.12-.061-.333-.207-.429-.384zm1.699-2.083c-.101.101-.152.109-.16.109-.006-.001-.009-.005-.012-.005-.326-.177-.443-.534-.443-.823v-.014l-.039-.173s-.01-.034-.013-.047c.005.02.065.009.065.009l.13-.003.114-.024c.168-.038.482-.095.884.035-.023.169-.262.678-.526.936m2.368-.32h.004c.034.015.021.056.034.092-.002-.013-.016-.048-.038-.092m-.34-2.44c-.008-.047-.03-.173-.01-.2.057-.023.168.07.214.11.016.016.022.029.044.034l.157.039c.161.008.477.028.728.487-.181.055-.425.148-.657.274-.195.108-.354.212-.474.301-.233-.434-.103-.668-.034-.785l.042-.102zm.022 1.482-.006-.011zm3.885-1.845c.008-.001.093-.049.093-.049.06-.037.149-.095.214-.074.077.024.091.068.11.143l.026.075c.055.111.177.366.123.738-.005-.002-.011-.009-.02-.012-.107-.056-.724-.246-1.184-.275.138-.332.48-.489.638-.546m-.801.253c0 .001-.002.002-.004.003l-.022-.028c.007.009.015.017.026.025m2.81 1.178c.113-.072.277-.197.335-.366.016-.046.021-.09.021-.13 0-.092-.033-.16-.067-.215.073-.035.132-.067.195-.103.077.058.161.213.191.271.018.031.147.135.147.135.109.032.221-.033.346-.104.213-.12.374-.196.51-.087.125.095.139.176.133.218-.204.116-.346.357-.4.463-.272-.032-.532.022-.773.157-.128-.034-.523.079-.725.409-.057.086-.092.201-.116.326-.022-.024-.077-.079-.124-.131.234-.199.37-.408.37-.624 0-.073-.016-.144-.043-.219m1.867.441-.038.124.005.082c.003.034.003.078.003.132 0 .185-.047.454-.325.681-.252-.095-.482-.222-.626-.425l-.102-.231c-.028-.091-.044-.193-.042-.311.382-.226.722-.136.833-.102.024.004.024.013.046.009l.194-.039s.093-.025.095-.028c-.015.002-.043.108-.043.108m-1.404-.043c0-.014.002-.024.002-.038v.038zm-.31.399c0-.001 0-.006.002-.01.061-.095.134-.152.202-.194zm.084.861c-.014-.016-.036-.033-.046-.05-.065-.101-.093-.214-.107-.329zm-.85.13c-.016-.074-.063-.105-.101-.141.18-.097.411-.239.499-.424.011.178.056.361.164.526-.226.027-.466.248-.655.421 0 0-.008.007-.021.02.008-.011.019-.02.024-.029.065-.096.098-.192.098-.286.001-.027.001-.057-.008-.087m2.14 1.026c.01.029.017.038.017.043v.002c-.007-.017-.017-.045-.017-.045m.022.062s-.003-.01-.005-.017l.035-.017c0-.004.006-.006.006-.006l-.033.064c0-.013-.003-.024-.003-.024m2.986-2.156.014.226c.073.175.272.118.419.079.25-.073.368-.08.427.049.126.271-.01.405-.307.553l-.163.13c-.052.115.019.224.082.31.03.047.082.128.071.153-.073.14-.427.064-.661.016-.221-.048-.366-.079-.464-.002-.119.09-.109.203-.104.272l-.002.074c-.033.108-.188.115-.431.085-.108-.009-.215-.018-.269.062-.223-.094-.531-.123-.921-.084-.01-.019-.019-.038-.034-.054-.053-.043-.137-.075-.234-.092.016-.043.029-.091.029-.142 0-.023-.005-.045-.008-.073.376.02 1.157.044 1.351-.401.02-.045.028-.087.028-.13 0-.093-.041-.181-.087-.257.389.001 1.002-.018 1.031-.408.003-.019.003-.038.003-.052 0-.237-.134-.354-.253-.417.035-.025.073-.051.105-.07.037-.021.071-.049.11-.073.177.014.236.057.252.076.03.03.027.088.016.17m-.808-.948c.123-.053.406-.181.558-.121.024.007.061.028.087.091.079.187-.016.318-.201.456-.024.007-.041.019-.057.039-.036.025-.077.052-.114.078-.15.097-.276.178-.319.295-.022.058-.047.079.008.111l.135.1c.12.04.204.079.193.241-.005.059-.12.159-.83.15-.177-.001-.256-.001-.3.095-.033.081.012.142.066.216.041.055.138.188.114.246-.122.286-.872.247-1.122.233l-.1.003c-.057-.045-.12-.072-.191-.081.039-.093.068-.184.055-.269.112-.09.19-.189.25-.287.027-.021.126-.079.218-.135.425-.253.854-.723.771-.76-.071-.035-.569.305-.842.476.022-.143.017-.261.008-.327-.002-.033.016-.083.016-.083.041-.098.11-.278-.029-.413-.124-.119-.278-.07-.372-.033.075-.11.173-.231.27-.256.102-.026.163.014.258.089l.183.104c.136.035.228-.075.337-.207.167-.195.319-.356.512-.321.051.01.073.054.103.147.022.062.055.153.158.168zm-.789-1.712c-.014.004-.028.011-.028.011.022-.009.024-.011.028-.011m-1.114.098c-.006.004-.022.018-.022.018.02-.016.02-.018.022-.018m-.836.494.079-.006.123-.118c.035-.07.234-.295.307-.312 0 .01.112.096.112.096l.221.132.283-.158c.112-.097.321-.279.427-.252.118.025.145.086.177.152l.136.148.226-.027c.213-.07.415-.122.545.037.043.049.043.086.035.11-.024.13-.242.279-.342.33-.036.017-.061.046-.071.083-.012.035-.008.074.008.107.041.073.076.173.082.255-.37-.061-.626.239-.773.422 0 0-.052.056-.081.086-.024-.013-.05-.029-.05-.029-.078-.061-.187-.145-.337-.154-.011-.091-.054-.198-.166-.308.057-.04.125-.086.207-.133.247-.145.523-.322.479-.374-.043-.051-.359.064-.626.176-.13.056-.236.132-.301.178-.251-.077-.502.063-.659.153 0 0-.073.037-.118.057-.048-.092-.11-.191-.187-.274.155-.123.253-.247.264-.377m-.252-.36s.016-.014.024-.024l.004.003c0 .002-.007 0-.028.021m-.895-.427.262-.176c.115-.12.286-.303.454-.305.08 0 .165.038.248.123.057.059.085.111.081.158-.004.119-.154.251-.255.337l-.166.24c0 .113.083.17.142.21.07.047.106.074.1.174-.005.063-.081.159-.26.275-.016.007-.036.015-.049.031-.087.052-.197.107-.331.163-.041.02-.1.071-.108.113-.019.077.024.136.055.174.047.06.073.1.049.166-.036.109-.193.21-.278.252-.041-.01-.084-.012-.123-.016 0 0-.019-.001-.041-.006-.002-.032-.008-.068-.008-.068-.014-.169-.031-.403-.218-.503-.084-.041-.174-.038-.261-.01.057-.075.123-.156.196-.236.223-.243.47-.481.425-.536-.069-.08-.382.127-.641.376-.105.1-.195.209-.264.3-.014-.185-.063-.363-.152-.535-.009-.016-.017-.046-.017-.046-.01-.05-.041-.131-.1-.207.083-.089.165-.076.244-.054l.084.013c.117 0 .156-.097.204-.236.059-.162.169-.465.352-.532l.076-.01c.027.011.055.093.073.141.034.093.084.23.227.23m-1.564-2.09.171.109c.122.024.199-.072.285-.187.145-.185.276-.334.453-.294.158.036.166.185.137.444-.014.107-.024.189.045.25l.145.052c.087.015.197.033.287.195.073.131-.224.389-.4.497-.051.034-.076.093-.06.152.017.061.068.102.13.105.039.001.049.014.057.031.019.029.025.075.022.114h-.181c-.307.113-.443.483-.519.701 0 0-.008.021-.014.036-.076-.015-.191-.028-.307.026.073-.157.14-.331.14-.469 0-.044-.008-.084-.021-.119-.055-.143-.174-.192-.284-.212.118-.149.268-.364.268-.64 0-.14-.039-.289-.148-.444-.089-.136-.22-.134-.33-.104.003-.044.014-.073.014-.12 0-.069-.006-.145-.019-.216.042.015.08.048.129.093m-.15.389c.002.006.005.01.005.012 0 .028-.011.06-.02.087.009-.023.009-.068.015-.099m-1.656 1.181c.063-.083.202-.104.311-.111.046-.002.109-.039.139-.079.055-.097 0-.196-.097-.379-.106-.199-.287-.533-.145-.613.045-.027.098-.016.181.006l.278-.006c.082-.046.112-.144.167-.305.054-.162.153-.467.274-.452.101.011.178.06.226.144.118.185.087.495.041.614-.022.056-.006.133.039.17.081.07.171.021.226-.006.026-.015.112-.06.139-.056.215.32.028.622-.188.874-.065.077-.123.143-.079.233.046.091.146.091.218.091.109 0 .163.006.179.05.026.075-.098.396-.285.682-.069.024-.126.06-.163.085-.142.056-.352.152-.542.317.055-.194.161-.628.199-.994.042-.375.049-.67-.063-.659-.051.004-.098.353-.183.725-.085.37-.193.761-.222.869-.03-.002-.063-.004-.093-.004 0 0-.076-.005-.13-.013v-.002c.057-.115.163-.333.163-.563 0-.189-.071-.385-.3-.539-.122-.079-.233-.056-.321-.002.007-.029.016-.055.031-.077m-.392.351.177.158c.102.023.172-.05.229-.108l.114-.093c.256.17.204.415.04.756l-.056.2c.039.204.277.206.436.211l.163.011c-.058.084-.1.187-.133.301-.118.028-.213.079-.28.159-.096.113-.123.259-.123.399-.109-.096-.234-.171-.378-.2-.03-.084-.071-.217-.107-.367-.082-.341-.166-.741-.261-.719-.058.016-.049.393 0 .734.022.138.051.268.079.369-.085.025-.152.069-.201.123-.033-.08-.071-.151-.118-.202-.055-.055-.11-.075-.158-.082-.043-.092-.086-.168-.135-.235.069-.056.081-.102.085-.123.012-.075-.027-.122-.12-.226-.228-.259-.325-.425-.296-.493.034-.068.052-.067.136-.053.067.008.161.024.232-.05.069-.065.061-.156.044-.309-.025-.238-.039-.498.105-.534.197-.052.412.224.526.373m-.911.292s.004 0 .004-.001c0 .016.004.038.004.038-.004-.024-.008-.034-.008-.037m-1.102-2.042c.005.019.013.042.013.042-.008-.025-.013-.033-.013-.042m-.151.308c.017-.067.055-.081.199-.095.082-.004.169-.012.222-.093.055-.077.025-.152-.037-.309-.074-.18-.207-.517-.057-.585.196-.089.466.245.58.388l.146.139c.049.017.142.028.218-.104.031-.05.044-.074.167-.038.139.044.171.441.141.711-.005.062.03.119.085.142.057.025.122.008.163-.038.041-.042.109-.092.13-.092.05.085.022.52-.021.82-.112-.055-.234-.081-.368-.047-.093.022-.152.072-.204.13-.15-.078-.28-.066-.378-.033-.014-.305-.066-.834-.494-.897-.197-.03-.321.112-.402.242-.057-.065-.112-.153-.09-.241m-1.148 1.502c.01-.092.095-.133.207-.177.067-.028.139-.057.163-.138l-.066-.214c-.158-.277-.291-.582-.097-.711.25-.176.461-.036.742.265.098.103.156.168.248.16.114-.009.171-.107.229-.211.043-.077.116-.205.173-.198.232.034.25.534.256.72.002.13.006.209.102.246.078.032.147-.015.181-.041.065-.045.14-.086.259-.019-.01.064-.016.125-.016.187 0 .096.008.188.016.262 0 0 .003.03.003.055-.131-.012-.289.005-.39.216-.019.043-.029.089-.029.136 0 .154.098.311.204.448-.098-.046-.193-.07-.272-.085-.032-.104-.103-.303-.24-.529-.108-.182-.457-.563-.547-.467-.089.097.173.402.267.546.071.112.128.222.166.314-.103-.057-.233-.098-.37-.041-.208.088-.183.32-.158.465-.354-.05-.411-.097-.411-.121 0-.038.041-.075.098-.127l.172-.261c.004-.155-.15-.201-.338-.251-.319-.091-.579-.186-.552-.429m-.698.94c.218-.23.463-.107.735.063l.245.108c.02 0 .039-.001.061-.005.032.234.321.312.618.352-.077.195-.116.506.138.945 0 .001-.003.001-.003.003-.062.067-.082.158-.06.256.047.19.256.397.512.498.313.127.626.134.891.053l.053.012.031-.039c.008-.006.019-.007.026-.012.02.179.109.312.197.399-.063.054-.11.12-.14.19-.086-.036-.196-.054-.316-.028-.226-.288-.506-.204-.645-.148-.069-.155-.213-.413-.415-.501l-.293-.001c-.045.021-.082.042-.118.067-.122-.248-.301-.417-.511-.466-.02-.005-.041-.005-.058-.007.017-.076.024-.16.002-.246-.044-.156-.223-.167-.382-.175-.295-.017-.396-.054-.396-.224l.057-.152.073-.25-.152-.251c-.188-.215-.256-.331-.15-.441m-.163 1.261s-.002-.021-.002-.029c.002-.002 0 .001.002.029m-2.546-.106c.017-.048.118-.095.183-.126l.163-.1c.064-.072.049-.16.022-.295-.065-.303-.071-.491.089-.557.077-.033.146.032.271.179l.214.177c.161.04.246-.116.305-.231.027-.05.085-.154.115-.167.108.006.166.356.189.509.028.184.047.296.161.332.148.045.246-.072.305-.14.049-.057.079-.087.098-.082.099.028.118.286.126.44.011.17.019.294.111.359.049.04.184.108.373-.028.153.143.395.162.537.171 0 0 .089.007.128.015v.009c0 .068-.025.134-.041.176-.504-.171-.888-.085-1.073-.043l-.084.017-.101.007-.289.107c-.008.008-.011.017-.017.026-.141-.102-.329-.256-.468-.428-.231-.283-.338-.614-.425-.58-.171.063.049.506.168.676.177.243.521.55.73.67l.003.012c0 .117.016.241.046.365-.177.065-.229.245-.253.334 0 0-.003.007-.005.019-.027.003-.063.012-.063.012-.004.001-.012.001-.019.004-.036-.05-.071-.189-.082-.25-.036-.14-.06-.262-.152-.328-.12-.086-.284-.031-.435.027 0 0-.14.042-.161.047-.039-.034-.087-.062-.087-.087 0-.007.008-.013.018-.023-.074-.087-.199-.245-.199-.245-.004-.004-.01-.006-.013-.01.065-.061.206-.152.265-.152.062-.004.138-.048.155-.107.029-.118-.065-.162-.181-.211-.574-.265-.657-.417-.627-.5m-.13 2.641c-.206.081-.294.107-.34.052l-.036-.088c.012-.081.114-.172.151-.197.046-.031.064-.088.055-.146-.017-.054-.061-.095-.12-.103-.128-.02-.494-.115-.594-.304-.039-.076-.037-.164.021-.272.074-.162.188-.162.391-.1l.202.003c.1-.056.087-.159.077-.243-.019-.155-.005-.21.049-.229.146-.053.352.046.482.168l.215.266.087.114c.114.095.269.037.421-.018 0 0 .171-.05.179-.051 0 0-.004.004-.004.013 0 .039.033.144.033.144.021.085.043.18.084.264-.132.057-.259.154-.302.341-.014.045-.02.087-.02.125 0 .279.251.436.368.51 0 0 .014.007.03.02.004.025.011.051.011.078 0 .019-.002.035-.008.048-.063.036-.112.075-.147.099-.118.012-.351.01-.49.222 0 .005 0 .007-.003.01-.058-.061-.125-.123-.196-.173.109-.138.226-.34.104-.5-.196-.252-.488-.138-.7-.053m-.399 2.115-.205.093c-.186.125-.33.197-.499.05-.053-.041-.069-.065.051-.214.053-.064.139-.172.053-.28l-.207-.097c-.311-.081-.484-.168-.449-.369.019-.091.055-.115.068-.122.079-.052.243-.02.365.008l.289.006c.131-.069.106-.216.087-.324-.036-.207-.012-.21.046-.224.16-.033.375.148.506.258.111.092.174.149.268.13.114-.02.141-.131.157-.197.028-.104.044-.135.104-.147.106-.016.343.184.524.449.009.006.015.008.017.012.012.023.02.044.026.058.016.025.051.148.051.148l.084.224c-.125-.042-.255-.076-.387-.094-.291-.045-1.17-.002-1.176.114-.003.106.781.106 1.029.14.057.008.117.019.177.028-.106.077-.13.207-.13.336 0 .041 0 .077.002.116v.075c-.011-.009-.033-.021-.033-.021-.161-.108-.427-.278-.691-.139-.035-.012-.073-.018-.127-.017m.314 1.518h.031c-.023 0-.025.002-.031 0m1.397-.176c-.032.044-.049.085-.067.126l-.038-.026c-.043-.026-.055-.079-.102-.058l-.189.094c-.137.107-.488.392-.654.243-.054-.048-.065-.105-.076-.201l-.082-.222-.274-.055c-.257.01-.388-.009-.439-.159-.011-.039-.027-.09-.009-.12.031-.059.155-.094.242-.121l.246-.126.008-.307-.02-.159c.097-.055.234.021.4.133.125.084.258.171.382.083.11-.08.103-.231.098-.378-.004-.064-.008-.187.01-.219.098-.056.319-.092.443.008.008.003.015.001.022.004.122.112.248.194.335.238-.054.143.008.337.158.48.046.046.131.102.251.148-.077.055-.131.115-.14.188-.002.011-.002.024-.002.034 0 .042.022.077.039.113-.164-.004-.374.035-.542.259m2.271.765c-.004-.01-.012-.021-.012-.021-.034-.075-.078-.166-.181-.188-.044-.012-.107-.012-.177.041-.117.091-.169.233-.229.381-.082.225-.163.438-.458.495-.122.023-.122.02-.153-.088-.019-.08-.073-.263-.285-.25l-.328.12c-.116.057-.438.204-.508.167-.123-.175-.008-.339.231-.557l.127-.136c.069-.116-.019-.22-.062-.276-.073-.088-.115-.141-.006-.287.123-.168.275-.159.447-.131.092.014.185.027.255-.048.03-.032.039-.066.039-.098 0-.084-.08-.156-.108-.185 0 0-.061-.065-.071-.074.016 0 .051-.025.051-.025.229-.12.559.059.683.123.063.037.112.062.177.037.038-.016.073-.05.087-.088.027-.074-.008-.134-.055-.212l-.073-.165c.049-.048.122-.055.175-.048.063.007.122.009.177.009-.041.063-.079.133-.079.203 0 .035.008.068.03.102.046.085.122.144.209.188-.352.103-.542.237-.801.43-.154.112-.465.377-.451.45.018.075.896-.424 1.266-.572.111-.044.31-.093.469-.127-.009.01-.014.025-.021.039-.104.368-.253.683-.365.791m-.052-1.331c.022 0 .073-.086.073-.086l.087-.227c-.019-.133-.152-.133-.281-.135-.065 0-.132-.001-.201-.009h-.002c-.008-.001-.019-.001-.03-.003-.204-.021-.389-.08-.46-.266.006.036.096-.059.096-.059.067-.063.193-.178.091-.303l-.211-.078c-.256-.033-.338-.083-.338-.199 0-.026.059-.058.104-.082.073-.038.179-.091.179-.208l-.136-.207c-.173-.154-.239-.248-.146-.402.039-.064.076-.079.104-.084.141-.029.362.122.443.18l.082.047c.147.059.218-.091.256-.165 0 0 .026-.05.043-.079.281.085.35.332.36.479.005.069.061.123.128.129.069.008.131-.032.15-.096.035-.108.098-.226.133-.247.081.073.284.397.262.788-.006.066.041.124.104.144.063.018.133-.013.163-.068.03-.054.085-.112.11-.119.056.035.181.251.206.812l-.008.073c-.051.028-.297-.058-.517-.209-.005-.002-.01 0-.014-.002-.013-.006-.024-.016-.037-.021-.152-.092-.338-.22-.518-.354 0 0-.458-.322-.521-.225-.062.095.365.46.365.46.186.136.371.261.523.352.016.009.026.018.043.026.16.155.302.337.319.415-.533.176-.903.185-1.004.028m-.468 6.398.014.02c-.008-.004-.014-.012-.022-.019.002 0 .005 0 .008-.001m.215 1.256c-.297 0-.474-.124-.477-.124-.06-.044-.144-.033-.193.02-.002.007-.115.118-.416.118-.308 0-.526-.098-.678-.312-.09-.126-.136-.448-.004-.694.116-.217.342-.326.667-.324.252.003.598.121.743.315l.602.857c.027.038.071.055.105.089-.08.028-.186.055-.349.055m4.175 0c-.269 0-.423-.118-.432-.121-.061-.047-.15-.036-.199.021-.006.004-.103.113-.376.113-.242 0-.48-.119-.621-.312l-.607-.866c-.024-.034-.06-.063-.087-.093.066-.022.158-.043.292-.043.269 0 .425.115.433.119.057.047.149.037.198-.021.006-.005.101-.114.374-.114.242 0 .481.121.62.315l.604.857c.028.036.063.066.093.102-.068.022-.16.043-.292.043m-1.279-1.558c-.105.024-.19.064-.244.104-.102-.055-.268-.123-.506-.123-.017 0-.028 0-.041 0 .263-.149.61-.136.792-.118-.003.05-.001.094-.001.137m1.032.3.025.044c-.014-.016-.025-.029-.039-.043.003 0 .009-.001.014-.001m.79-.196c-.104-.057-.272-.123-.508-.123-.067 0-.12.002-.173.009.08-.149.213-.319.407-.319.082 0 .146.022.195.073.087.085.118.23.129.328-.019.009-.036.02-.05.032m3.585 1.454c-.27 0-.425-.118-.431-.121-.062-.047-.152-.036-.201.021-.004.004-.1.113-.375.113-.242 0-.479-.119-.624-.312l-.604-.866c-.024-.031-.055-.059-.082-.087.067-.026.168-.049.31-.049.272 0 .427.115.433.119.061.047.15.037.201-.021.004-.005.102-.114.374-.114.242 0 .479.121.621.315-.002-.008.609.862.609.862.024.033.06.057.087.089-.068.028-.171.051-.318.051m-2.526-6.458c-.746 1.114-.376 2.816-.197 3.124l.025.04c.18.311.424.738 1.44 1.153l.12.05c.667.273.918.379 1.052.524-.196.023-.322.08-.397.124-.156-.09-.333-.148-.515-.148-.109 0-.197.016-.272.036-.033-.078-.065-.152-.074-.168-.158-.311-.447-.429-.728-.542-.36-.15-.738-.302-.966-.883-.122-.308-.177-.719-.199-1.101-.017-.268-.104-1.13-.174-1.128-.073.004-.125.874-.109 1.148.025.401.082.842.218 1.178.275.692.744.887 1.123 1.039.283.118.506.209.609.481l.005.043c-.104-.043-.248-.089-.441-.089-.286 0-.46.075-.552.133-.161-.092-.343-.148-.529-.148-.065 0-.122.005-.174.014-.022-.13-.071-.303-.196-.427-.105-.104-.245-.159-.402-.159-.325 0-.598.245-.75.673-.002.01-.002.017-.004.027-.006.004-.014.01-.022.012-.15-.082-.315-.132-.488-.136-.002-.055-.005-.116 0-.178 0-.007.005-.012.005-.016.006-.021.006-.038 0-.055.014-.104.041-.213.093-.311.043-.088.103-.188.166-.297.335-.556.354-1.087.28-1.088-.079 0-.343.646-.525.95-.065.109-.128.212-.175.306-.055.099-.083.204-.103.304-.313-.037-1.007-.05-1.307.497-.003.004-.003.011-.003.021-.004 0-.004 0-.008.002-.155-.086-.333-.141-.514-.141-.256 0-.409.075-.501.139-.01-.01-.026-.017-.04-.023.37-.249.972-.544 1.393-.752l.229-.112c.631-.315 1.047-.964 1.175-1.833.011-.075 0-.109-.479-.853-.218-.34-.487-.761-.531-.872-.092-.231-.686-1.164-1.391-1.409.136-.026.278-.066.437-.118.089-.031.146-.094.166-.175.003-.016.006-.034.006-.052 0-.068-.033-.143-.073-.22.097.018.193.034.272-.009.076-.04.163-.131.155-.327-.008-.134-.019-.279-.043-.417.002 0 .004.002.011.002.079.014.386.238.362 1.084-.035 1.241 1.288 2.115 1.375 2.138.049.011.122-.011.158-.043.095-.091.133-.3.133-.559 0-.317-.055-.707-.117-1.05-.224-1.255-.98-1.468-1.269-1.55l-.071-.023c.118-.09.261-.229.34-.389.017.009.028.024.046.033.222.095.48 0 .67-.079v.024c-.002.246-.013.764.335 1.33l.406.663.206.338c.033.054.099.077.161.061.226-.063.4-1.258.4-1.271.008-.056.008-.12.008-.194 0-.28-.051-.663-.187-1.003 0-.002.004-.002.004-.004.02.021.041.038.069.045.076.021.155-.021.177-.095.067-.233.114-.417.144-.562.002.041.005.084.008.115l.057.291c.084.101.18.054.438-.072.091-.041.203-.093.317-.142-.169.224-.322.491-.449.823-.126.325-.143.702-.161 1.032-.008.241-.018.463-.071.591-.005.017-.008.033-.008.049 0 .052.028.098.077.123.06.035.139.016.182-.041.156-.211.506-.651.835-.978-.063.146-.119.284-.136.359v.022c0 .043.022.085.057.111.047.032.107.036.156.01.01-.006.217-.108.552-.079v.014c-.279.1-.854.373-1.302 1.045m.906-1.305c.066-.15.159-.337.24-.5.046-.072.139-.136.303-.213.049-.023.421-.24.368-.333-.053-.092-.437.055-.49.082-.185.09-.398.217-.417.228-.128.077-.27.19-.409.325-.035-.095-.055-.229.032-.336l.153-.105c.13-.057.248-.131.28-.333.188.03.354.035.421.003.124-.063.148-.184.159-.261.019.004.038.01.038.01.22.058.637.168.942-.101.063-.053.095-.113.095-.18 0-.027-.032-.057-.044-.086.077.01.168.019.259.014.008.016.011.039.011.068v.022c-.002.057-.065.104-.15.163l-.163.167c-.008.026-.014.052-.014.073 0 .081.055.141.087.175.039.04.065.071.065.136v.026c-.018.159-.188.208-.5.245l-.295.091c-.038.038-.049.076-.049.114 0 .083.069.156.098.19l.063.082c-.002 0-.043.045-.043.045-.057.043-.289.084-.4.106l-.199.055c-.174-.013-.324.004-.441.028m3.488 1.785c-.075.11-.18.099-.364.04l-.126-.029c-.091 0-.149.066-.189.116-.049.059-.09.106-.191.109-.11.007-.256-.141-.344-.229l-.187-.134c-.126-.021-.18.086-.202.128-.03.066-.049.103-.179.086-.14-.016-.281-.352-.347-.514-.073-.165-.108-.253-.195-.284-.12-.045-.204.046-.236.082-.109-.109-.193-.51-.237-.819.215.076.539.206.729.345.155.112.45.347.529.284.078-.067-.183-.382-.362-.508-.19-.135-.384-.25-.561-.336.541-.196.893-.154.95-.118-.002 0-.017.059-.017.059l-.016.142c.022.138.158.151.452.185.136.016.422.048.476.089v.007c0 .011-.013.043-.043.098-.022.047-.051.102-.051.163 0 .025.002.049.016.073.037.093.145.123.305.167.083.023.255.072.291.112-.008 0-.048.042-.048.042-.045.047-.11.111-.11.203 0 .012 0 .028.003.043l.149.176c.098.076.131.118.131.155-.002.021-.01.041-.026.067m-.471-1.117c.029.007.036.003.036.006v.004zm1.372-.246c-.022.059-.077.07-.245.048l-.253.042-.083.196c-.005.066-.013.077-.032.087-.063.042-.164.026-.267.01l-.106-.014c-.073-.031-.152-.055-.229-.075 0 0-.045-.014-.086-.027.027-.054.065-.127.065-.211 0-.057-.017-.117-.065-.174-.093-.119-.311-.153-.659-.191 0 0-.112-.016-.189-.027.003-.032.015-.058.015-.088 0-.075-.025-.152-.104-.213-.125-.098-.427-.121-.805-.041-.022-.05-.055-.123-.079-.172.018-.005.032-.005.032-.005.164-.018.414-.05.584-.184.435.243.97.214 1.232.105.022-.011.039-.021.057-.033.044.062.102.122.175.15l.325-.021c.102-.018.301-.061.35-.025.117.095.106.123.065.208l-.041.241c.025.083.098.112.177.146.185.078.232.125.166.268m.42-.342s.037.019.067.03c-.025.004-.038-.014-.067-.03m.985-.344v.001c0-.016.004-.032.004-.032-.004.01-.004.016-.004.021zm.534-.403c-.014.079-.044.136-.087.167-.096.066-.286.03-.398.009l-.242.007c-.079.05-.089.141-.098.237-.011.107-.025.201-.08.226-.076.034-.299-.066-.396-.108-.134-.06-.232-.103-.313-.021l-.058.13c-.013.051-.028.084-.038.104-.09-.104-.215-.159-.281-.186.002-.005.005-.014.005-.014.025-.046.054-.117.054-.202 0-.098-.043-.215-.198-.338-.153-.121-.393-.07-.586-.028l-.174.026c-.017-.009-.065-.081-.092-.147.075-.018.141-.039.204-.059.06-.007.117-.016.18-.018.261-.015 1.249.151 1.249.022 0-.097-.586-.211-.98-.248.215-.185.287-.392.319-.499 0 0 .013-.041.016-.044 0 .003.029-.019.043-.026.035.019.061.065.084.153.019.072.038.146.12.179.082.034.145-.005.267-.08.155-.099.525-.328.662-.187.103.104.076.172.042.253-.051.129-.032.216.063.261l.142.033c.442.067.6.177.571.398"/><path d="m125.851 38.128c0 3.623 2.725 6.46 6.215 6.46 3.567 0 6.581-2.961 6.581-6.46 0-3.116-2.396-6.341-6.4-6.341-3.412.001-6.396 2.964-6.396 6.341m2.142-1.001c0-2.158 1.266-4.344 3.676-4.344 3.018 0 4.829 3.319 4.829 6.529 0 2.058-1.385 4.282-3.613 4.282-3.062.001-4.892-3.284-4.892-6.467m-4.01-5.429h-.388l-.025.038c-.059.086-.176.237-.813.268l-2.439.03h-3.418l-2.663-.03c-.639-.03-.757-.182-.815-.268l-.034-.038h-.447l-.019.068c-.06.126-.894 2.326-.919 2.459l-.023.076.568.347.045-.114c.373-1.024.78-1.51 2.91-1.51.682 0 1.251.042 1.64.087.123 1.669.152 3.28.152 4.505 0 1.172-.039 4.619-.156 5.363-.045.268-.134.441-1.17.631l-.745.095-.3.037.133.688 1.005-.07.281-.014 1.959-.053h.313l1.076.01.833.032.874.031.015-.093.069-.611-.545-.057-.132-.015c-.511-.071-.889-.197-1.036-.336-.132-.154-.364-.953-.364-4.524l.056-2.544.063-2.899c0-.247 0-.263 1.118-.263l.04.007.663-.007h.146c1.968 0 2.115.419 2.452 1.334l.11.29.564-.342-.143-.66c-.188-.967-.354-1.778-.398-1.88l-.028-.068zm-17.802.176s.982.065 1.267.09c.295.024 1.222.031 2.527.031h.094v.661h-.094c-.667 0-1.369.14-1.467.977-.089.474-.162 4.358-.162 6.018 0 1.122 0 3.697.068 4.69l.005.112-.784.02-.024-.043-8.696-9.277c0 .287-.016.729-.016.729l-.069 5.106c-.024 2.007-.024 2.268 2.268 2.68l.084.013v.602l-.01.111s-.928-.069-.938-.069l-1.349-.063-2.803.127v-.562-.084s.76-.168.779-.17c.438-.091.693-.143.781-.849.088-.688.177-3.123.177-3.912l.034-2.148c.063-3.501-.196-3.692-1.869-4.01l-.075-.014.005-.6-.014-.115.854.069.898.025 1.34-.025.028.035s8.196 8.759 8.358 8.934c.011-.339-.025-3.314-.025-3.314-.063-4.927.305-4.979-2.025-5.116l-.108-.003.122-.616c.07-.048.839-.04.839-.04m-18.775-.086c4.004 0 6.399 3.225 6.399 6.341 0 3.499-3.013 6.46-6.586 6.46-3.483 0-6.208-2.837-6.208-6.46 0-3.378 2.989-6.341 6.395-6.341m.642 11.807c2.228 0 3.611-2.225 3.611-4.282 0-3.21-1.811-6.529-4.828-6.529-2.415 0-3.681 2.186-3.681 4.344.001 3.182 1.832 6.467 4.898 6.467m-14.957-11.713c2.543 0 4.324 1.385 4.324 3.369 0 1.608-1.38 2.705-2.702 3.082 2.437 3.513 2.888 4.052 3.858 4.958.029.034.801.782 1.762.847l.094.009-.038.652h-.095c-2.106 0-3.16-.811-3.743-1.261-1.844-1.451-3.664-4.307-4.007-4.916-.103-.004-1.273-.046-1.457-.053v1.648.563c0 .836.021 2.045.204 2.411.124.239 1.097.525 1.617.683l.062.019.042.654-.122-.017c-.723-.122-1.866-.214-2.662-.214-.413 0-2.289.119-2.697.151l-.084.007-.146-.557.112-.019c.25-.043 1.243-.289 1.475-.73.183-.388.177-2.556.177-3.486v-.278-2.909c0-3.707-.153-3.716-1.612-3.806l-.1-.003.044-.723.178.017s1.072.054 1.081.054l1.117.027c.271 0 .979-.06 1.66-.122zm-1.967 5.792c.354.046.878.05 1.201.05 1.088 0 2.912-.304 2.912-2.318 0-1.067-.762-2.65-2.88-2.65-1.175 0-1.175.038-1.207 2.105 0 0-.026 2.637-.026 2.813m-12.431-5.886c4.004 0 6.392 3.225 6.392 6.341 0 3.499-3.017 6.46-6.578 6.46-3.49 0-6.217-2.837-6.217-6.46.001-3.378 2.99-6.341 6.403-6.341m.637 11.807c2.229 0 3.607-2.225 3.607-4.282 0-3.21-1.809-6.529-4.825-6.529-2.416 0-3.669 2.186-3.669 4.344-.001 3.182 1.826 6.467 4.887 6.467m-8.904-11.897h-.384l-.03.038c-.057.086-.176.237-.808.268l-2.439.03h-3.424l-2.667-.03c-.636-.03-.744-.182-.807-.268l-.032-.038h-.451l-.022.068c-.051.126-.886 2.326-.919 2.459l-.016.076.562.347.039-.114c.384-1.024.798-1.51 2.917-1.51.682 0 1.251.042 1.643.087.125 1.669.145 3.28.145 4.505 0 1.172-.033 4.619-.152 5.363-.044.268-.128.441-1.163.631l-.753.095-.296.037.135.688 1.002-.07.278-.014 1.958-.053h.313l1.083.01.83.032.871.031.014-.093.076-.611-.546-.057-.133-.015c-.512-.071-.891-.197-1.037-.336-.136-.154-.36-.953-.36-4.524l.055-2.544.063-2.899c0-.247 0-.263 1.121-.263l.038.007.661-.007h.147c1.971 0 2.124.419 2.454 1.334l.109.29.557-.342-.136-.66c-.193-.967-.358-1.778-.396-1.88l-.028-.068z"/><path d="m127.226 21.393c-.814.076-1.002.076-1.904.076l-.957-.013-.985-.025-.323.017-.257.025v.039.183l.045.003c.245.011.481.032.585.172.141.204.156.413.156 2.246 0 .864-.079 1.839-.113 1.983-.05.2-.354.272-.578.309l-.034.007-.021.275.055-.006c.554-.039 1.158-.05 1.314-.05l.49.011.904.043v-.046-.257l-.064-.007c-.644-.057-.86-.158-.928-.235s-.099-.391-.099-.718c0-.097.006-.193.011-.288 0 0 .02-.771.024-.955.069-.004.461-.023.461-.023.505 0 1.138.105 1.306.176.083.025.162.192.196.426l.005.035h.274l.005-.037c.055-.539.044-1.071.035-1.475l-.005-.041h-.294l-.005.038c-.07.377-.099.535-1.194.535-.323 0-.432-.011-.74-.043 0 0-.015-.001-.023-.001-.011-.094-.016-.191-.016-.3 0-.118.005-.241.005-.37 0 0 .02-1.077.02-1.245.318-.033.594-.048.672-.048.608 0 1.148.104 1.364.263.172.121.241.327.29.511l.01.034.309-.017-.005-.045c-.01-.083.015-.367.035-.617l.028-.551zm-8.523-.039c1.85 0 2.954 1.359 2.954 2.674 0 1.474-1.394 2.723-3.038 2.723-1.61 0-2.872-1.196-2.872-2.723 0-1.426 1.38-2.674 2.956-2.674m.294 4.977c1.029 0 1.668-.938 1.668-1.806 0-1.354-.833-2.754-2.228-2.754-1.119 0-1.698.924-1.698 1.834 0 1.341.844 2.726 2.258 2.726m-10.489-4.869v.256l.069.003c.279.015.667.029.667.238 0 .063-.123.366-1.184 1.79-.456-.508-1.466-1.711-1.466-1.865 0-.058 0-.126.642-.136h.05v-.306l-.54.009-1.026.018-1.113-.014v.045.236h.044c.28 0 .446.03.58.119.342.224 1.54 1.646 1.589 1.708 0 .004.481.577.525.631.029.37.055.782.055 1.288 0 .777 0 .938-.781.963l-.044.002-.02.26.044.005c.118.009.476-.018.828-.041l.595-.036.456.02.089.007.614.027v-.046-.218l-.045-.004c-.766-.061-.775-.152-.79-.293v-.052c-.014-.323-.024-.678-.024-1.066 0-.294.006-.605.015-.932.014-.021 1.104-1.557 1.104-1.557.349-.499.265-.772 1.021-.785l.044-.002v-.3l-.044-.003c-.099-.008-.123.008-.393.021l-.359.018-.431-.021-.299-.017-.422-.015h-.05zm-4.972-.147h-.176l-.015.018c-.024.034-.079.099-.373.112l-1.124.012h-1.581l-1.231-.012c-.294-.014-.343-.078-.377-.112l-.011-.018h-.21l-.011.029c-.024.052-.406.981-.422 1.034l-.014.034.264.145.021-.046c.176-.432.363-.637 1.344-.637.315 0 .58.019.757.036.063.704.069 1.383.069 1.898 0 .494-.016 1.948-.069 2.261-.02.113-.06.188-.54.267.004 0-.344.041-.344.041l-.137.016.059.29.466-.029.128-.009.908-.02.142-.001.501.005.378.013.406.013.005-.037.035-.258-.256-.023-.054-.007c-.24-.031-.411-.083-.48-.142-.064-.066-.167-.403-.167-1.908l.024-1.073.029-1.222c0-.104 0-.11.511-.11l.025.002.304-.002h.063c.913 0 .98.176 1.139.563l.05.119.259-.143-.063-.276c-.088-.409-.168-.751-.188-.794l-.009-.029zm-9.383.158v.259l.045.004c.735.022.854.162.912.306.104.229.129 1.704.129 2.255v.088c0 .449 0 1.5-.153 1.737-.049.082-.234.224-.961.273l-.039.002v.265l.888-.027h.815l1.353.04v-.047l-.018-.246h-.046c-.589 0-.785-.01-.854-.225-.033-.113-.054-.605-.054-1.467 0-2.028.016-2.564.131-2.759.154-.226.675-.199.826-.183l.054.002v-.306h-.662c-.005 0-.942.024-.942.024l-.618-.018-.265-.007-.491-.014h-.05zm-4.976 1.392c0 .887.819 1.197 1.414 1.422l.048.019c1.021.386 1.493.559 1.493 1.215 0 .386-.314.799-.992.799-.604 0-1.046-.238-1.311-.439-.313-.248-.402-.618-.432-.74l-.009-.03h-.338l.019.054c.186.573.251.832.235 1.479v.041l.275.018.015-.028c.015-.03.059-.127.123-.127.069 0 .261.047.344.064l.038.012.085.021c.137.041.333.097.686.097 1.375 0 2.11-.774 2.11-1.499 0-1.022-1.089-1.421-1.805-1.685-.683-.242-1.202-.469-1.202-.982 0-.51.421-.852 1.05-.852.563 0 .965.293 1.063.394.228.196.281.426.34.647l.004.035.041.011h.25l-.079-.685c0-.245.054-.508.088-.614l.011-.045-.257-.034s-.146.095-.176.112c-.516-.126-.771-.162-1.129-.162-1.178-.003-2.002.609-2.002 1.482m-3.969-1.472c1.172 0 1.997.582 1.997 1.419 0 .678-.639 1.141-1.252 1.302 1.13 1.479 1.339 1.706 1.786 2.09.01.015.369.329.815.356l.045.005-.021.274h-.045c-.976 0-1.458-.342-1.728-.532-.858-.614-1.693-1.814-1.854-2.072-.044-.001-.589-.021-.667-.022v.694s-.004.189-.004.238c0 .354.009.863.092 1.017.064.1.507.22.751.285l.029.009.021.275-.061-.008c-.337-.051-.862-.089-1.226-.089-.196 0-1.061.05-1.247.063l-.039.006-.068-.236.054-.009c.113-.018.569-.121.678-.307.087-.164.083-1.079.083-1.471v-.118-1.225c0-1.563-.073-1.566-.741-1.604l-.049-.002.02-.306.083.006.496.024.52.013c.123 0 .452-.026.767-.053zm-.914 2.44c.167.021.412.022.56.022.5 0 1.345-.128 1.345-.979 0-.449-.354-1.117-1.33-1.117-.545 0-.545.016-.56.89 0 .001-.01 1.111-.015 1.184m-3.446-2.416c-.691.039-1.775.053-2.496.053-.437 0-1.536-.024-1.938-.038l-.049-.001v.259l.037.008c.479.074.508.086.542.188.052.122.111.591.111 2.169 0 .673-.057 1.736-.126 2.098-.035.176-.274.233-.649.27l-.048.007.043.288.047-.004c.753-.077 1.666-.077 2.211-.077l2.248.027.02-.032c.118-.174.294-.436.417-1.269l.009-.047-.264-.02-.015.029c-.192.479-.569.968-1.938.968-.48 0-.687-.059-.956-.152-.024-.147-.052-.364-.063-1.004 0 0-.011-.776-.016-.955.363-.045.695-.047.844-.047 1.093 0 1.179.08 1.329.706l.005.033h.266v-.041c-.015-.689-.015-.85.028-1.567l.005-.047h-.294l-.01.032c-.108.384-.196.455-.352.479-.807.096-1.59.065-1.778.054-.003-.066-.027-.687-.027-.687 0-.333.029-.847.094-1.214.293-.049.847-.098 1.082-.098.624 0 .986.077 1.149.238.136.132.136.326.123.548v.041l.317.038v-.052c0-.056.04-.263.064-.416l.033-.189c.045-.273.045-.403.045-.529v-.046h-.05zm-12.166.061.015.228.038.003c.755.089.785.09 1.397 1.251.001.004 1.265 2.387 1.265 2.387 0-.001.012.023.012.023.213.415.537 1.04.647 1.4l.007.031h.279l.013-.029c.189-.521.329-.879.77-1.693l1.361-2.475c.316-.582.452-.73 1.065-.846l.035-.005v-.286l-.045.002c-.351.013-.691.013-1.038 0-.002 0-1.069-.028-1.069-.028l-.004.041-.016.268.046-.001c.282 0 .661.032.661.313 0 .154-.124.41-.201.575l-.023.045c-.28.582-.455.901-.642 1.238l-.623 1.183c0 .003-.09.191-.145.3-.613-.916-1.727-3.361-1.732-3.507 0-.063.015-.069.476-.125l.143-.016v-.286l-.861.004-.464-.004c-.323 0-.98-.014-1.316-.038l-.056-.005zm-3.797-.005v.259l.047.004c.734.022.855.162.913.306.102.229.124 1.704.124 2.255v.088c0 .449.002 1.5-.151 1.737-.048.082-.238.224-.958.273l-.043.002v.265l.888-.027h.816l1.356.04-.003-.047-.019-.246h-.042c-.592 0-.784-.01-.854-.225-.037-.113-.054-.605-.054-1.467 0-2.028.013-2.566.133-2.759.149-.226.669-.199.826-.183l.054.002v-.306h-.667c-.003 0-.939.024-.939.024l-.621-.018-.265-.007-.491-.014h-.05zm-2.818-.084s.457.027.589.037c.139.012.566.015 1.166.015h.044v.277h-.044c-.309 0-.631.06-.679.411-.039.2-.071 1.839-.071 2.538 0 .472 0 1.558.026 1.977l.007.05-.361.007-.014-.018-4.014-3.911c-.001.121-.011.306-.011.306l-.027 2.152c-.014.848-.014.958 1.044 1.131l.04.004v.256l-.003.045s-.432-.031-.435-.031l-.624-.025-1.298.055v-.237l.002-.034s.353-.072.363-.073c.201-.037.321-.059.36-.357.039-.289.082-1.316.082-1.649l.011-.905c.03-1.477-.085-1.556-.859-1.689l-.035-.008.004-.251-.01-.047.396.028.415.011.616-.011.016.015s3.784 3.691 3.858 3.766c.005-.143-.011-1.397-.011-1.397-.028-2.075.14-2.099-.935-2.156l-.052-.002.058-.261c.031-.021.386-.019.386-.019m-9.53.042.048.001v.299l-.043.003c-.869.074-.94.08-.94 1.883v.972c0 .56 0 1.73 1.581 1.73 1.741 0 1.867-1.051 1.867-2.778v-.458c0-.348-.048-1.044-.226-1.206-.125-.114-.402-.128-.686-.128h-.044v-.263l-.001-.045.334.011.752.018.979-.021.124-.007-.019.291-.042.002c-.653.034-.659.188-.671.551l-.001.031-.015.754c-.039 2.493-.167 3.693-2.586 3.693-1.53 0-2.337-.62-2.337-1.792l.068-1.697c0-.792-.077-1.393-.191-1.456-.086-.058-.208-.058-.576-.058h-.044l-.02-.287.043-.003c.114-.014.888-.025 1.27-.025l.322-.006c.357-.009.84-.017 1.054-.009"/><path d="m41.579 49.436v-.607h94.276v.607z"/><g stroke="#002f65" stroke-width=".1"><path d="m42.39 58.962-.179-.01c.005-.425-.075-.935-.241-1.53.07-.021.117-.033.14-.036.07.229.125.394.165.497.039.102.09.192.153.27s.149.147.26.209c.19.104.409.196.657.279.249.082.516.123.802.123.248 0 .497-.063.747-.191s.375-.411.375-.849c0-.22-.037-.408-.109-.567-.073-.158-.169-.286-.287-.385-.118-.098-.256-.185-.412-.261-.156-.077-.359-.163-.607-.262-.345-.131-.628-.266-.852-.402-.224-.139-.401-.308-.532-.51-.131-.201-.197-.446-.197-.737 0-.461.162-.845.486-1.152.324-.306.787-.46 1.389-.46.307 0 .609.033.907.102.12.024.194.036.224.036.087 0 .175-.03.263-.092l.035-.018c.023 0 .053.005.087.018-.009.07-.017.14-.024.209-.007.068-.015.145-.022.227s-.012.146-.015.192c-.003.045-.006.076-.009.092.038.369.055.57.052.604l-.131.01c-.023-.312-.121-.557-.293-.735-.172-.18-.367-.301-.583-.365-.216-.063-.423-.096-.622-.096-.485 0-.805.132-.961.396s-.234.514-.234.749c0 .247.058.452.175.615.117.164.262.292.436.385s.418.204.734.331c.356.146.643.28.858.405.216.123.409.302.579.536.169.233.254.523.254.869 0 .293-.073.558-.219.793-.146.234-.365.421-.657.56-.292.137-.65.206-1.073.206-.412 0-.84-.063-1.284-.188-.079-.019-.127-.028-.145-.028-.079 0-.107.054-.09.161z"/><path d="m54.417 58.022c-.015.04-.078.267-.188.679-.315.098-.602.173-.858.227-.257.054-.536.08-.837.08-.362 0-.724-.066-1.086-.201s-.688-.334-.977-.599c-.289-.263-.518-.586-.688-.966-.169-.381-.254-.813-.254-1.299 0-.665.157-1.228.471-1.686.314-.459.714-.796 1.2-1.013s.988-.325 1.505-.325c.406 0 .797.075 1.174.225.175.059.307.087.395.087.041-.009.071-.016.09-.019s.043-.006.072-.009c.018 0 .037.012.057.037l-.066.261c-.062.229-.115.521-.162.874-.053-.008-.087-.027-.105-.057s-.026-.075-.026-.14c-.006-.192-.031-.324-.075-.395-.079-.134-.276-.271-.591-.412-.315-.14-.632-.21-.951-.21-.42 0-.801.108-1.141.327-.34.218-.609.538-.806.959-.197.423-.295.917-.295 1.484 0 .522.087.973.261 1.35.173.377.391.676.652.896.262.22.527.379.797.477s.504.146.703.146c.315 0 .577-.055.784-.162.208-.108.37-.238.488-.39.119-.151.233-.332.344-.543.043-.089.082-.133.114-.133.056 0 .083.027.083.082-.001.042-.029.164-.084.368z"/><path d="m61.634 58.962v-.151c.134-.025.241-.057.322-.097.08-.04.121-.106.121-.201 0-.089-.026-.217-.079-.385-.052-.168-.092-.284-.118-.349l-.324-.921c-.169-.023-.446-.036-.83-.036h-.347c-.348-.013-.654.006-.917.055l-.322.847c-.142.354-.213.576-.213.665 0 .107.046.196.138.268s.279.129.563.173v.151c-.342-.044-.632-.065-.872-.065-.245 0-.511.013-.797.037v-.133c.175-.046.31-.117.403-.215.07-.065.163-.216.278-.456s.232-.501.351-.783c.119-.283.204-.504.257-.662l.701-1.755c.088-.21.178-.431.27-.662.092-.229.179-.462.261-.693.082-.232.142-.419.18-.56 0-.039.009-.068.026-.087l.145-.009c.091.339.19.664.298.976l.919 2.579c.236.645.415 1.12.536 1.427s.227.525.317.657c.076.113.232.183.468.206v.161c-.239-.024-.47-.037-.692-.037-.175 0-.338.004-.488.014-.151.009-.27.018-.357.024-.089.009-.155.013-.198.017zm-1.387-4.128-.495 1.333c-.067.188-.112.309-.136.357.222.036.477.055.766.055l.403-.009c.242 0 .459-.007.652-.019-.102-.312-.167-.496-.197-.554l-.315-.844c-.035-.092-.101-.258-.199-.499s-.168-.406-.212-.495c-.055.129-.103.246-.142.351-.039.107-.081.214-.125.324z"/><path d="m69.389 56.9-.504-.75c-.386 0-.705-.021-.959-.061l-.009 1.1c0 .232.007.492.02.778.013.288.043.491.09.609.023.073.063.126.12.156s.185.073.383.128c.064.016.097.04.097.073 0 .067-.021.102-.062.102-.047 0-.169-.017-.368-.047-.251-.024-.404-.036-.46-.036-.283 0-.575.021-.876.064-.021 0-.045.002-.074.009-.059 0-.088-.027-.088-.082 0-.031.011-.054.033-.069s.071-.033.147-.055c.131-.037.226-.093.285-.168.059-.074.101-.221.127-.439s.041-.568.044-1.051v-2.025c.006-.494.003-.857-.006-1.09-.011-.231-.035-.402-.073-.511-.038-.108-.096-.181-.175-.218s-.203-.065-.373-.087l.018-.151c.155.006.352.01.591.01.07 0 .325-.02.765-.058.439-.038.717-.058.834-.058.307 0 .583.045.828.133.245.089.45.207.615.354s.29.313.375.501.127.381.127.579c0 .205-.044.404-.131.596-.088.193-.221.367-.399.525-.178.156-.407.29-.688.4l.197.312c.275.434.504.784.686 1.052.182.267.377.523.585.771s.421.448.639.602c.217.155.429.241.636.259.056.01.083.04.083.092 0 .028-.013.049-.039.063s-.089.021-.188.021c-.283 0-.557-.064-.819-.194s-.513-.305-.749-.524-.446-.451-.631-.692c-.185-.243-.403-.55-.654-.923zm-1.437-1.076c.196.049.432.073.709.073.141 0 .289-.011.445-.032s.317-.067.482-.141.308-.197.427-.371c.12-.174.18-.406.18-.7 0-.207-.052-.425-.155-.651s-.264-.423-.479-.586c-.217-.162-.479-.244-.789-.244-.129 0-.274.018-.436.053s-.256.091-.283.167c-.067.148-.101.96-.101 2.432z"/><path d="m78.318 55.703c.415.079.749.209 1.001.39.253.181.429.379.528.598s.148.45.148.695c0 .672-.236 1.104-.709 1.297-.474.192-.957.289-1.45.289-.047 0-.132-.003-.254-.007-.123-.005-.246-.009-.37-.012s-.22-.006-.285-.008c-.065 0-.14-.001-.221-.001-.176 0-.46.012-.854.037v-.175c.116-.012.21-.028.28-.048s.131-.056.184-.108.086-.122.101-.21c.029-.132.053-.404.068-.82.016-.415.027-.838.033-1.267s.009-.761.009-.997c0-.253-.003-.499-.009-.737s-.021-.472-.046-.7c-.025-.229-.059-.382-.099-.458-.041-.086-.103-.146-.185-.184-.082-.036-.191-.066-.328-.088v-.173c.31.024.582.036.819.036.055 0 .258-.012.608-.036.374-.028.571-.042.592-.042.283 0 .541.056.775.165.233.109.421.273.563.492.142.218.213.472.213.762 0 .309-.091.574-.271.799-.181.225-.461.394-.841.511zm-1.235-.598v.563c.064-.007.139-.01.224-.01.263-.006.493-.03.692-.073.198-.043.375-.148.53-.316.154-.168.231-.426.231-.773 0-.274-.055-.509-.164-.701s-.256-.339-.44-.439c-.184-.102-.381-.151-.591-.151-.202 0-.324.024-.368.073-.038.033-.066.266-.086.698-.019.432-.028.808-.028 1.129zm0 .778v1.796c0 .312.006.531.018.659s.04.224.084.287c.043.062.109.1.196.112.088.012.243.019.465.019.236 0 .465-.039.686-.117s.406-.215.559-.41c.151-.195.228-.458.228-.788 0-.183-.033-.371-.101-.563s-.168-.364-.303-.516c-.134-.151-.312-.274-.532-.371s-.477-.144-.769-.144c-.07 0-.154.003-.252.009s-.192.016-.279.027z"/><path d="m83.678 55.989c0-.556.141-1.069.423-1.54.281-.47.656-.842 1.123-1.117.468-.274.963-.412 1.485-.412.356 0 .708.073 1.056.22s.658.353.934.616c.274.265.493.587.657.969.163.382.245.797.245 1.246 0 .547-.13 1.058-.391 1.532-.26.476-.621.853-1.084 1.134s-.986.421-1.57.421c-.447 0-.85-.091-1.209-.274s-.665-.43-.918-.742-.44-.645-.565-1.001c-.124-.356-.186-.707-.186-1.052zm.653-.349c0 .535.12 1.04.359 1.517s.561.857.964 1.143.829.429 1.279.429c.333 0 .651-.086.957-.259.305-.173.556-.438.751-.8.196-.359.294-.804.294-1.333 0-.421-.065-.821-.195-1.2-.13-.378-.311-.71-.543-.996-.232-.285-.5-.507-.804-.664-.304-.158-.624-.235-.96-.235-.367 0-.712.095-1.033.285-.321.191-.58.471-.775.837-.197.365-.294.791-.294 1.276z"/><path d="m95.884 56.9-.504-.75c-.385 0-.705-.021-.959-.061l-.009 1.1c0 .232.007.492.02.778.014.288.043.491.09.609.023.073.063.126.121.156.057.03.185.073.383.128.064.016.097.04.097.073 0 .067-.021.102-.062.102-.047 0-.169-.017-.368-.047-.251-.024-.404-.036-.46-.036-.283 0-.575.021-.876.064-.021 0-.045.002-.074.009-.059 0-.088-.027-.088-.082 0-.031.011-.054.033-.069.021-.016.07-.033.146-.055.132-.037.227-.093.285-.168.058-.074.101-.221.127-.439s.04-.568.043-1.051v-2.025c.006-.494.004-.857-.006-1.09-.011-.231-.034-.402-.072-.511s-.097-.181-.176-.218c-.078-.037-.203-.065-.372-.087l.018-.151c.154.006.352.01.592.01.069 0 .324-.02.764-.058s.718-.058.835-.058c.307 0 .583.045.828.133.245.089.45.207.615.354s.29.313.375.501c.084.188.127.381.127.579 0 .205-.044.404-.132.596-.088.193-.221.367-.398.525-.179.156-.407.29-.688.4l.197.312c.275.434.504.784.686 1.052.181.267.376.523.585.771.208.248.421.448.638.602.218.155.43.241.637.259.056.01.083.04.083.092 0 .028-.014.049-.039.063-.026.014-.09.021-.188.021-.283 0-.557-.064-.819-.194s-.513-.305-.749-.524c-.237-.22-.447-.451-.631-.692-.186-.243-.403-.55-.655-.923zm-1.436-1.076c.195.049.433.073.71.073.14 0 .288-.011.444-.032s.316-.067.481-.141.308-.197.428-.371c.119-.174.18-.406.18-.7 0-.207-.052-.425-.155-.651-.104-.227-.264-.423-.48-.586-.216-.162-.479-.244-.788-.244-.129 0-.274.018-.436.053s-.257.091-.283.167c-.068.148-.101.96-.101 2.432z"/><path d="m101.647 55.989c0-.556.141-1.069.423-1.54.281-.47.656-.842 1.123-1.117.468-.274.963-.412 1.485-.412.356 0 .708.073 1.056.22s.658.353.934.616c.274.265.493.587.657.969.163.382.245.797.245 1.246 0 .547-.13 1.058-.391 1.532-.26.476-.621.853-1.084 1.134s-.986.421-1.57.421c-.447 0-.85-.091-1.209-.274s-.665-.43-.918-.742-.44-.645-.565-1.001-.186-.707-.186-1.052zm.652-.349c0 .535.12 1.04.359 1.517s.561.857.964 1.143.829.429 1.279.429c.333 0 .651-.086.957-.259.305-.173.556-.438.751-.8.196-.359.294-.804.294-1.333 0-.421-.065-.821-.195-1.2-.13-.378-.311-.71-.543-.996-.232-.285-.5-.507-.804-.664-.304-.158-.624-.235-.96-.235-.367 0-.712.095-1.033.285-.321.191-.58.471-.775.837-.196.365-.294.791-.294 1.276z"/><path d="m111.208 53.245.018-.174c.137.007.346.009.626.009.497 0 .984-.012 1.464-.037l.048.151c-.271.034-.455.075-.55.124s-.164.116-.208.202c-.088.17-.132.887-.132 2.148 0 .434.006.814.018 1.146.012.329.035.586.07.769.097.461.331.768.705.919.374.15.723.227 1.047.227.185 0 .405-.027.662-.082s.501-.154.731-.298.386-.339.464-.586c.161-.488.241-1.447.241-2.879 0-.427-.013-.749-.037-.964-.024-.214-.065-.37-.12-.467-.056-.096-.126-.154-.211-.176-.084-.021-.219-.032-.402-.032l-.018-.16c.131-.021.277-.032.438-.032.628 0 1.05.004 1.267.009v.188c-.202.009-.34.031-.414.068-.075.037-.12.103-.136.197-.017.095-.027.296-.033.604-.009.577-.021 1.089-.039 1.537-.018.447-.04.815-.066 1.104-.026.288-.063.545-.111.771s-.107.409-.178.55c-.134.259-.343.461-.626.604-.283.145-.569.238-.858.282-.289.045-.553.067-.789.067-.395 0-.758-.063-1.091-.186-.333-.124-.605-.329-.816-.616-.212-.287-.318-.656-.318-1.107 0-.109.004-.41.012-.902.007-.491.011-.856.011-1.098 0-.846-.04-1.407-.118-1.685-.021-.07-.055-.114-.104-.131-.051-.015-.199-.037-.447-.064z"/><path d="m126.529 56.035v.174c-.114.04-.187.07-.217.09-.031.019-.058.061-.081.125-.015.04-.024.094-.028.16-.005.066-.009.168-.012.302-.003.135-.004.386-.004.755 0 .271.006.465.018.581.012.114.029.195.055.239.024.044.066.093.125.145l-.044.104c-.047.003-.25.043-.609.12-.239.045-.469.082-.688.112-.219.028-.395.047-.525.055-.132.007-.286.011-.465.011-.54 0-1.01-.087-1.41-.261s-.73-.41-.99-.708c-.26-.297-.45-.621-.569-.971-.12-.35-.18-.703-.18-1.062 0-.467.091-.894.273-1.28.183-.386.433-.711.749-.976.317-.264.677-.462 1.078-.596.401-.133.814-.198 1.237-.198.161 0 .314.01.462.031s.277.046.388.071c.111.026.183.045.215.057.126.059.208.088.245.088.155-.138.244-.206.268-.206.041 0 .062.059.062.174 0 .089.02.277.059.568.04.29.06.488.06.596 0 .045-.018.068-.053.068-.026 0-.043-.005-.05-.014-.008-.01-.021-.04-.042-.092-.108-.263-.311-.509-.606-.74-.297-.23-.7-.346-1.212-.346-.484 0-.914.128-1.288.383-.373.255-.659.591-.858 1.008-.198.417-.298.847-.298 1.289 0 .314.057.638.169.969.112.332.283.645.513.939s.508.529.837.703c.328.175.689.261 1.084.261.333 0 .615-.048.848-.146.232-.098.383-.191.453-.284.032-.042.053-.109.062-.201s.013-.328.013-.71c0-.372-.014-.632-.041-.778-.028-.146-.095-.244-.199-.293-.105-.05-.292-.073-.562-.073-.113 0-.205.005-.275.019l.018-.198c.403-.003.777-.008 1.123-.016.342-.007.641-.024.892-.048z"/><path d="m129.938 58.999-.062-.174c.31-.037.498-.103.565-.197.05-.073.089-.411.118-1.015.029-.602.044-1.123.044-1.563l.009-1.511c0-.411-.015-.707-.042-.888-.027-.18-.085-.299-.173-.359s-.227-.092-.416-.099l.009-.151c.169-.03.316-.045.442-.045.041 0 .192.006.455.019.199.018.355.026.469.026l.636-.009c0 .056.003.108.009.16l-.232.037c-.146.021-.245.048-.298.078s-.092.092-.116.186c-.024.093-.052.283-.081.57-.029.274-.044.601-.044.975 0 .313.003.557.009.734h2.072c.791 0 1.28-.002 1.468-.005.187-.004.322-.014.407-.032l.009-.965c0-.524-.005-.853-.016-.985-.01-.133-.031-.235-.063-.309-.032-.098-.085-.164-.157-.199-.073-.035-.229-.078-.465-.13l.022-.175c.134.019.269.035.402.051.173.018.364.027.574.027.053 0 .204-.006.455-.019.264-.013.411-.018.443-.018l.018.128c-.041.012-.069.021-.084.027-.119.031-.21.07-.271.119s-.105.126-.134.23c-.027.106-.046.226-.055.36s-.019.461-.03.98l-.04 2.111c-.015.581-.008.997.021 1.251.027.254.083.419.166.495s.229.127.436.151l-.008.137c-.114-.026-.256-.045-.426-.055-.093-.007-.216-.009-.367-.009-.053 0-.229.006-.526.019-.236.019-.419.026-.547.026l-.018-.159c.198-.025.338-.066.42-.125.082-.057.136-.15.162-.278.026-.129.044-.351.053-.665l.026-1.039-.009-.601-.486-.023-2.501-.019-.951.01c-.018.357-.026.891-.026 1.599 0 .442.018.719.053.825.015.058.04.106.077.146.036.04.097.075.182.107.084.031.215.066.39.104l-.009.146c-.062-.003-.169-.012-.322-.023s-.302-.022-.444-.029c-.144-.008-.271-.012-.386-.012-.185.005-.457.019-.816.051z"/></g></g></svg>